<?xml version="1.0" encoding="utf-8"?>
<!-- Generator: Adobe Illustrator 26.5.0, SVG Export Plug-In . SVG Version: 6.00 Build 0)  -->
<svg version="1.1" xmlns="http://www.w3.org/2000/svg" xmlns:xlink="http://www.w3.org/1999/xlink" x="0px" y="0px"
	 viewBox="0 0 518.3 216.7" style="enable-background:new 0 0 518.3 216.7;" xml:space="preserve">
<style type="text/css">
	.st0{fill:#13A0DB;}
	.st1{fill:#FFFFFF;}
	.st2{fill:none;stroke:#85FCFF;stroke-miterlimit:10;}
	.st3{fill:none;stroke:#F9914B;stroke-width:2;stroke-miterlimit:10;}
	.st4{fill:none;stroke:#A303ED;stroke-miterlimit:10;}
	.st5{opacity:0.18;fill:#F9B2B2;}
	.st6{fill:#494949;}
	.st7{fill:#606060;}
	.st8{fill:#CCCCCC;}
	.st9{fill:#545859;}
	.st10{fill:#0081BE;}
	.st11{fill:#85BCE4;}
	.st12{fill:#1A2144;}
	.st13{fill:#333B87;}
	.st14{fill:#F7A600;}
	.st15{fill:#DDDE3A;}
	.st16{fill:#9C8B64;}
	.st17{fill:#5A5D62;}
	.st18{fill:#696C74;}
	.st19{fill:#717981;}
	.st20{fill:#878B97;}
	.st21{fill:#D3CCD8;}
	.st22{fill:#F2F2F2;}
	.st23{fill:url(#SVGID_1_);}
	.st24{fill:url(#SVGID_00000044177123806381856900000001304654245284792227_);}
	.st25{fill:url(#SVGID_00000107579686343228742530000000695688633694883739_);}
	.st26{fill:url(#SVGID_00000104684849958685038390000002237984658765831554_);}
	.st27{fill:#FFFFFF;stroke:#DFE0DF;stroke-miterlimit:10;}
	.st28{clip-path:url(#SVGID_00000056395285127948613590000014291713009790085539_);}
	.st29{fill-rule:evenodd;clip-rule:evenodd;fill:#545859;}
	.st30{fill-rule:evenodd;clip-rule:evenodd;fill:#0081BE;}
	.st31{fill-rule:evenodd;clip-rule:evenodd;fill:#13A0DB;}
	.st32{fill-rule:evenodd;clip-rule:evenodd;fill:#88BCE7;}
	.st33{fill:#F40000;}
	.st34{clip-path:url(#SVGID_00000107588407262374592260000012865030482491825339_);}
	.st35{clip-path:url(#SVGID_00000133512593970695798430000009757649597531107986_);}
	.st36{fill-rule:evenodd;clip-rule:evenodd;fill:#FFFFFF;}
	.st37{clip-path:url(#SVGID_00000049198000025624882140000000775766218480385951_);}
	.st38{fill-rule:evenodd;clip-rule:evenodd;fill:none;stroke:#1D1D1B;stroke-width:0.1293;stroke-miterlimit:10;}
	.st39{clip-path:url(#SVGID_00000030471210865541116720000016459504516701071274_);}
	.st40{fill:none;stroke:#CCCCCC;stroke-miterlimit:10;}
	.st41{clip-path:url(#SVGID_00000155859184520542817910000003310410059126301334_);}
	.st42{clip-path:url(#SVGID_00000127762817119899704430000008050859771543858561_);}
	.st43{clip-path:url(#SVGID_00000127746703684835560590000011636650759787943308_);}
	.st44{clip-path:url(#SVGID_00000127746703684835560590000011636650759787943308_);fill:#FFFFFF;}
	.st45{clip-path:url(#SVGID_00000127746703684835560590000011636650759787943308_);fill:#13A0DB;}
	.st46{clip-path:url(#SVGID_00000093887618613897512130000005601264777803066752_);}
	.st47{clip-path:url(#SVGID_00000093887618613897512130000005601264777803066752_);fill:#545859;}
	.st48{clip-path:url(#SVGID_00000093887618613897512130000005601264777803066752_);fill:#13A0DB;}
	.st49{fill:none;stroke:#545859;stroke-miterlimit:10;}
	.st50{fill:none;stroke:#F7A600;stroke-miterlimit:10;}
	.st51{fill:none;stroke:#FFFFFF;stroke-width:0.25;stroke-miterlimit:10;}
	.st52{fill-rule:evenodd;clip-rule:evenodd;fill:#0083BE;}
	.st53{fill:#F8B120;}
	.st54{fill:#DD6675;}
	.st55{fill:#D85061;}
	.st56{fill:#7DFEFF;}
	.st57{fill:#6AFEFF;}
	.st58{fill:none;stroke:#FCFCFC;stroke-width:4;stroke-miterlimit:10;}
</style>
<g id="Carrossel">
</g>
<g id="Grids">
	<g id="Feed_ig_grid">
	</g>
	<g id="Feed_linke_grid">
	</g>
	<g id="Blog_grid">
	</g>
	<g id="Storys_grid">
	</g>
	<g id="Reels_grid">
	</g>
</g>
<g id="Guia_de_estilos">
	<g id="Tipografia">
	</g>
	<g>
		<defs>
			<rect id="SVGID_00000080893690067239783090000005310078391920229253_" width="518.3" height="216.7"/>
		</defs>
		<clipPath id="SVGID_00000169532503795399487530000017864565303974881174_">
			<use xlink:href="#SVGID_00000080893690067239783090000005310078391920229253_"  style="overflow:visible;"/>
		</clipPath>
		<g style="clip-path:url(#SVGID_00000169532503795399487530000017864565303974881174_);">
			<g>
				<g>
					<path class="st9" d="M64.5,162.7v-49.8l7.2-1.3v51.1H64.5z"/>
					<path class="st9" d="M86.2,162.7v-49.8h25.3c9,0,13.6,4.5,13.6,13.6v36.2h-7.2v-37.1c0-4.2-2.1-6.3-6.3-6.3H93.4v43.4H86.2z"/>
					<path class="st9" d="M138.4,149.1v-22.6c0-9,4.5-13.6,13.6-13.6H170V94.3l7.2-1.3v69.6H152
						C142.9,162.7,138.4,158.1,138.4,149.1z M145.6,150c0,4.2,2.1,6.3,6.3,6.3H170v-37.1H152c-4.2,0-6.3,2.1-6.3,6.3V150z"/>
					<path class="st9" d="M190.6,162.7v-49.8l7.2-1.3v51.1H190.6z"/>
					<path class="st9" d="M212.3,149.1v-22.6c0-9,4.5-13.6,13.6-13.6h17.7l3.6,2.7v3.6h-21.3c-4.2,0-6.3,2.1-6.3,6.3V150
						c0,4.2,2.1,6.3,6.3,6.3h21.3v3.6l-3.6,2.7h-17.7C216.8,162.7,212.3,158.1,212.3,149.1z"/>
					<path class="st9" d="M259.1,162.7v-49.8l7.2-1.3v51.1H259.1z"/>
					<path class="st9" d="M280.8,149.1v-36.2h7.2V150c0,4.2,2.1,6.3,6.3,6.3h18.1v-43.4h7.2v49.8h-25.3
						C285.3,162.7,280.8,158.1,280.8,149.1z"/>
					<path class="st9" d="M334.8,162.7v-49.8h53.3c9,0,13.6,4.5,13.6,13.6v36.2h-7.2v-37.1c0-4.2-2.1-6.3-6.3-6.3h-16.3v43.4h-7.2
						v-43.4h-22.6v43.4H334.8z"/>
					<g>
						<path class="st29" d="M431,113.3c-7.7,2-14.2,1.2-18-2.9c-8.3-9,0.1-30.1,18.1-46.6c17.6-16,37.8-21.8,45.6-13.2
							c4,4.3,4.1,11.6,1,19.8c0,0,0,0.1,0,0.1c4.2-10.3,4.2-19.7-0.9-25.3c-9.2-10-31.7-4.5-50.9,12.9
							c-19.8,17.9-28.4,41.5-18.6,52.1c5,5.4,13.8,6.2,23.7,3.2C431.1,113.3,431,113.3,431,113.3z"/>
						<g>
							<path class="st30" d="M411.4,48.6c-0.5,0.3-0.9,0.7-1.4,1.1c0.4-0.4,0.8-0.9,1.2-1.3c0.4-0.4,0.9-0.7,1.3-1.1
								C412.2,47.6,411.8,48.1,411.4,48.6z"/>
							<path class="st30" d="M413.4,47.2c-0.5,0.3-0.9,0.6-1.4,1c0.4-0.5,0.7-0.9,1.1-1.4c0.4-0.4,0.9-0.7,1.3-1
								C414.1,46.2,413.7,46.7,413.4,47.2z"/>
							<path class="st30" d="M415.3,45.9c-0.5,0.3-0.9,0.6-1.4,0.9c0.3-0.5,0.7-1,1.1-1.5c0.4-0.3,0.9-0.6,1.3-1
								C416,44.8,415.6,45.4,415.3,45.9z"/>
							<path class="st30" d="M417.2,44.7c-0.5,0.3-0.9,0.5-1.4,0.8c0.3-0.5,0.6-1,1-1.6c0.4-0.3,0.9-0.6,1.3-0.9
								C417.8,43.6,417.5,44.2,417.2,44.7z"/>
							<path class="st30" d="M419.2,43.6c-0.5,0.2-0.9,0.5-1.4,0.8c0.3-0.5,0.6-1.1,0.9-1.6c0.4-0.3,0.9-0.5,1.3-0.8
								C419.7,42.5,419.5,43,419.2,43.6z"/>
							<path class="st30" d="M421.1,42.6c-0.5,0.2-0.9,0.5-1.4,0.7c0.3-0.6,0.5-1.1,0.8-1.7c0.4-0.3,0.9-0.5,1.3-0.7
								C421.6,41.5,421.4,42,421.1,42.6z"/>
							<path class="st30" d="M423.1,41.7c-0.5,0.2-0.9,0.4-1.4,0.6c0.2-0.6,0.5-1.2,0.7-1.7c0.4-0.2,0.9-0.4,1.3-0.7
								C423.5,40.5,423.3,41.1,423.1,41.7z"/>
							<path class="st30" d="M425,40.9c-0.5,0.2-0.9,0.4-1.4,0.6c0.2-0.6,0.4-1.2,0.7-1.8c0.4-0.2,0.9-0.4,1.3-0.6
								C425.4,39.7,425.2,40.3,425,40.9z"/>
							<path class="st30" d="M427,40.2c-0.5,0.2-0.9,0.3-1.4,0.5c0.2-0.6,0.4-1.2,0.6-1.8c0.4-0.2,0.9-0.3,1.3-0.5
								C427.3,39,427.1,39.6,427,40.2z"/>
							<path class="st30" d="M428.9,39.7c-0.5,0.1-0.9,0.3-1.4,0.4c0.2-0.6,0.3-1.2,0.5-1.8c0.4-0.2,0.9-0.3,1.3-0.4
								C429.2,38.4,429,39,428.9,39.7z"/>
							<path class="st30" d="M430.8,39.2c-0.5,0.1-0.9,0.2-1.4,0.3c0.1-0.6,0.3-1.3,0.4-1.9c0.4-0.1,0.9-0.2,1.3-0.4
								C431.1,37.9,431,38.5,430.8,39.2z"/>
							<path class="st30" d="M432.8,38.8c-0.5,0.1-0.9,0.2-1.4,0.3c0.1-0.6,0.2-1.3,0.3-1.9c0.4-0.1,0.9-0.2,1.3-0.3
								C433,37.5,432.9,38.1,432.8,38.8z"/>
							<path class="st30" d="M434.7,38.5c-0.5,0.1-0.9,0.1-1.4,0.2c0.1-0.6,0.2-1.3,0.2-1.9c0.4-0.1,0.9-0.1,1.3-0.2
								C434.9,37.2,434.8,37.8,434.7,38.5z"/>
							<path class="st30" d="M436.7,38.3c-0.5,0-0.9,0.1-1.4,0.1c0.1-0.6,0.1-1.3,0.2-1.9c0.4-0.1,0.9-0.1,1.3-0.1
								C436.7,37,436.7,37.7,436.7,38.3z"/>
							<path class="st30" d="M438.6,38.2c-0.5,0-0.9,0-1.4,0.1c0-0.6,0.1-1.3,0.1-1.9c0.4,0,0.9,0,1.3-0.1
								C438.6,36.9,438.6,37.6,438.6,38.2z"/>
							<path class="st30" d="M440.6,38.2c-0.5,0-0.9,0-1.4,0c0-0.6,0-1.3,0-1.9c0.4,0,0.9,0,1.3,0C440.5,36.9,440.5,37.6,440.6,38.2
								z"/>
							<path class="st30" d="M442.5,38.3c-0.5,0-0.9-0.1-1.4-0.1c0-0.6,0-1.3-0.1-1.9c0.4,0,0.9,0.1,1.3,0.1
								C442.4,37,442.5,37.7,442.5,38.3z"/>
							<path class="st30" d="M444.4,38.5c-0.5-0.1-0.9-0.1-1.4-0.2c0-0.6-0.1-1.3-0.2-1.9c0.4,0,0.9,0.1,1.3,0.2
								C444.3,37.3,444.4,37.9,444.4,38.5z"/>
							<path class="st30" d="M446.4,38.9c-0.5-0.1-0.9-0.2-1.4-0.2c-0.1-0.6-0.2-1.3-0.2-1.9c0.4,0.1,0.9,0.2,1.3,0.2
								C446.2,37.6,446.3,38.2,446.4,38.9z"/>
							<path class="st30" d="M448.3,39.3c-0.5-0.1-0.9-0.2-1.4-0.3c-0.1-0.6-0.2-1.3-0.3-1.9c0.4,0.1,0.9,0.2,1.3,0.3
								C448.1,38,448.2,38.6,448.3,39.3z"/>
							<path class="st31" d="M450.3,39.8c-0.5-0.1-0.9-0.3-1.4-0.4c-0.1-0.6-0.3-1.3-0.4-1.9c0.4,0.1,0.9,0.3,1.3,0.4
								C450,38.5,450.1,39.2,450.3,39.8z"/>
							<path class="st31" d="M452.2,40.4c-0.5-0.2-0.9-0.3-1.4-0.4c-0.2-0.6-0.3-1.2-0.5-1.9c0.4,0.1,0.9,0.3,1.3,0.5
								C451.9,39.2,452,39.8,452.2,40.4z"/>
							<path class="st30" d="M410.9,49.8c-0.5,0.3-1,0.6-1.5,0.9c0.4-0.5,0.7-0.9,1.1-1.4c0.5-0.3,0.9-0.7,1.4-1
								C411.6,48.9,411.3,49.3,410.9,49.8z"/>
							<path class="st30" d="M413,48.6c-0.5,0.3-1,0.6-1.5,0.9c0.3-0.5,0.7-1,1-1.5c0.5-0.3,0.9-0.6,1.4-0.9
								C413.6,47.6,413.3,48.1,413,48.6z"/>
							<path class="st30" d="M415,47.4c-0.5,0.3-1,0.5-1.5,0.8c0.3-0.5,0.6-1,0.9-1.5c0.5-0.3,0.9-0.6,1.4-0.9
								C415.6,46.4,415.3,46.9,415,47.4z"/>
							<path class="st30" d="M417.1,46.4c-0.5,0.2-1,0.5-1.5,0.7c0.3-0.5,0.6-1.1,0.9-1.6c0.5-0.3,0.9-0.5,1.4-0.8
								C417.6,45.3,417.3,45.8,417.1,46.4z"/>
							<path class="st30" d="M419.1,45.4c-0.5,0.2-1,0.4-1.5,0.7c0.3-0.5,0.5-1.1,0.8-1.6c0.5-0.2,0.9-0.5,1.4-0.7
								C419.6,44.3,419.3,44.8,419.1,45.4z"/>
							<path class="st30" d="M421.1,44.5c-0.5,0.2-1,0.4-1.5,0.6c0.2-0.6,0.5-1.1,0.7-1.7c0.5-0.2,0.9-0.4,1.4-0.6
								C421.6,43.4,421.4,43.9,421.1,44.5z"/>
							<path class="st30" d="M423.2,43.7c-0.5,0.2-1,0.4-1.5,0.5c0.2-0.6,0.4-1.2,0.6-1.8c0.5-0.2,0.9-0.4,1.4-0.6
								C423.6,42.5,423.4,43.1,423.2,43.7z"/>
							<path class="st30" d="M425.2,43c-0.5,0.2-1,0.3-1.5,0.5c0.2-0.6,0.4-1.2,0.6-1.8c0.5-0.2,0.9-0.3,1.4-0.5
								C425.6,41.8,425.4,42.4,425.2,43z"/>
							<path class="st30" d="M427.3,42.4c-0.5,0.1-1,0.3-1.5,0.4c0.2-0.6,0.3-1.2,0.5-1.8c0.5-0.2,0.9-0.3,1.4-0.4
								C427.6,41.2,427.4,41.8,427.3,42.4z"/>
							<path class="st30" d="M429.3,41.9c-0.5,0.1-1,0.2-1.5,0.3c0.1-0.6,0.3-1.2,0.4-1.9c0.5-0.1,0.9-0.3,1.4-0.4
								C429.6,40.7,429.5,41.3,429.3,41.9z"/>
							<path class="st30" d="M431.4,41.5c-0.5,0.1-1,0.2-1.5,0.3c0.1-0.6,0.2-1.3,0.3-1.9c0.5-0.1,0.9-0.2,1.4-0.3
								C431.6,40.3,431.5,40.9,431.4,41.5z"/>
							<path class="st30" d="M433.4,41.2c-0.5,0.1-1,0.1-1.5,0.2c0.1-0.6,0.2-1.3,0.3-1.9c0.5-0.1,0.9-0.2,1.4-0.2
								C433.6,39.9,433.5,40.6,433.4,41.2z"/>
							<path class="st30" d="M435.5,41c-0.5,0-1,0.1-1.5,0.1c0.1-0.6,0.1-1.3,0.2-1.9c0.5-0.1,0.9-0.1,1.4-0.2
								C435.6,39.7,435.5,40.4,435.5,41z"/>
							<path class="st30" d="M437.5,40.9c-0.5,0-1,0-1.5,0.1c0-0.6,0.1-1.3,0.1-1.9c0.5,0,0.9-0.1,1.4-0.1
								C437.6,39.6,437.5,40.2,437.5,40.9z"/>
							<path class="st30" d="M439.6,40.8c-0.5,0-1,0-1.5,0c0-0.6,0-1.3,0-1.9c0.5,0,0.9,0,1.4,0C439.6,39.5,439.6,40.2,439.6,40.8z"
								/>
							<path class="st31" d="M441.6,40.9c-0.5,0-1,0-1.5,0c0-0.6,0-1.3,0-1.9c0.5,0,0.9,0,1.4,0.1C441.6,39.6,441.6,40.2,441.6,40.9
								z"/>
							<path class="st31" d="M443.7,41c-0.5,0-1-0.1-1.5-0.1c0-0.6-0.1-1.3-0.1-1.9c0.5,0,0.9,0.1,1.4,0.1
								C443.5,39.7,443.6,40.4,443.7,41z"/>
							<path class="st31" d="M445.7,41.3c-0.5-0.1-1-0.1-1.5-0.2c-0.1-0.6-0.1-1.3-0.2-1.9c0.5,0.1,0.9,0.1,1.4,0.2
								C445.5,40,445.6,40.6,445.7,41.3z"/>
							<path class="st30" d="M408.6,52.3c-0.5,0.3-1,0.6-1.5,0.9c0.3-0.4,0.7-0.9,1.1-1.3c0.5-0.3,1-0.6,1.5-1
								C409.2,51.4,408.9,51.9,408.6,52.3z"/>
							<path class="st30" d="M410.7,51.1c-0.5,0.3-1,0.6-1.5,0.8c0.3-0.5,0.6-0.9,1-1.4c0.5-0.3,1-0.6,1.5-0.9
								C411.3,50.2,411,50.6,410.7,51.1z"/>
							<path class="st30" d="M412.9,50c-0.5,0.3-1,0.5-1.5,0.8c0.3-0.5,0.6-1,0.9-1.5c0.5-0.3,1-0.6,1.5-0.8
								C413.4,49,413.1,49.5,412.9,50z"/>
							<path class="st30" d="M415,49c-0.5,0.2-1,0.5-1.5,0.7c0.3-0.5,0.6-1,0.8-1.6c0.5-0.3,1-0.5,1.5-0.8
								C415.5,47.9,415.3,48.5,415,49z"/>
							<path class="st30" d="M417.1,48.1c-0.5,0.2-1,0.4-1.5,0.7c0.2-0.5,0.5-1.1,0.8-1.6c0.5-0.2,1-0.5,1.5-0.7
								C417.6,47,417.4,47.5,417.1,48.1z"/>
							<path class="st30" d="M419.3,47.2c-0.5,0.2-1,0.4-1.5,0.6c0.2-0.6,0.5-1.1,0.7-1.7c0.5-0.2,1-0.4,1.5-0.6
								C419.7,46.1,419.5,46.7,419.3,47.2z"/>
							<path class="st30" d="M421.4,46.5c-0.5,0.2-1,0.3-1.5,0.5c0.2-0.6,0.4-1.2,0.6-1.7c0.5-0.2,1-0.4,1.5-0.6
								C421.8,45.3,421.6,45.9,421.4,46.5z"/>
							<path class="st31" d="M423.6,45.8c-0.5,0.2-1,0.3-1.5,0.5c0.2-0.6,0.4-1.2,0.6-1.8c0.5-0.2,1-0.3,1.5-0.5
								C423.9,44.6,423.7,45.2,423.6,45.8z"/>
							<path class="st31" d="M425.7,45.2c-0.5,0.1-1,0.3-1.5,0.4c0.2-0.6,0.3-1.2,0.5-1.8c0.5-0.2,1-0.3,1.5-0.4
								C426,44,425.8,44.6,425.7,45.2z"/>
							<path class="st31" d="M427.8,44.7c-0.5,0.1-1,0.2-1.5,0.4c0.1-0.6,0.3-1.2,0.4-1.8c0.5-0.1,1-0.3,1.5-0.4
								C428.1,43.4,428,44.1,427.8,44.7z"/>
							<path class="st30" d="M468.5,51.4c-0.5-0.3-1-0.5-1.5-0.8c-0.3-0.5-0.6-1-0.9-1.5c0.5,0.3,1,0.6,1.5,0.9
								C467.9,50.4,468.2,50.9,468.5,51.4z"/>
							<path class="st30" d="M470.6,52.6c-0.5-0.3-1-0.6-1.5-0.9c-0.3-0.5-0.6-1-1-1.4c0.5,0.3,1,0.6,1.5,0.9
								C470,51.7,470.3,52.2,470.6,52.6z"/>
							<path class="st30" d="M408.4,53.7c-0.5,0.3-1.1,0.5-1.6,0.8c0.3-0.5,0.6-0.9,0.9-1.4c0.5-0.3,1-0.6,1.5-0.9
								C409,52.7,408.7,53.2,408.4,53.7z"/>
							<path class="st30" d="M410.6,52.6c-0.5,0.2-1.1,0.5-1.6,0.7c0.3-0.5,0.6-1,0.9-1.5c0.5-0.3,1-0.5,1.5-0.8
								C411.2,51.6,410.9,52.1,410.6,52.6z"/>
							<path class="st30" d="M412.8,51.7c-0.5,0.2-1.1,0.5-1.6,0.7c0.3-0.5,0.5-1,0.8-1.5c0.5-0.3,1-0.5,1.5-0.7
								C413.3,50.6,413.1,51.1,412.8,51.7z"/>
							<path class="st30" d="M415.1,50.8c-0.5,0.2-1.1,0.4-1.6,0.6c0.2-0.5,0.5-1.1,0.7-1.6c0.5-0.2,1-0.5,1.5-0.7
								C415.5,49.7,415.3,50.2,415.1,50.8z"/>
							<path class="st31" d="M417.3,49.9c-0.5,0.2-1.1,0.4-1.6,0.6c0.2-0.5,0.4-1.1,0.7-1.6c0.5-0.2,1-0.4,1.5-0.6
								C417.7,48.8,417.5,49.4,417.3,49.9z"/>
							<path class="st31" d="M419.5,49.2c-0.5,0.2-1.1,0.3-1.6,0.5c0.2-0.6,0.4-1.1,0.6-1.7c0.5-0.2,1-0.4,1.5-0.6
								C419.9,48,419.7,48.6,419.5,49.2z"/>
							<path class="st30" d="M466.3,51.8c-0.5-0.2-1.1-0.4-1.6-0.7c-0.2-0.5-0.5-1.1-0.7-1.6c0.5,0.2,1,0.5,1.5,0.7
								C465.8,50.8,466.1,51.3,466.3,51.8z"/>
							<path class="st30" d="M468.5,52.8c-0.5-0.2-1.1-0.5-1.6-0.7c-0.3-0.5-0.5-1-0.8-1.5c0.5,0.2,1,0.5,1.5,0.8
								C468,51.8,468.3,52.3,468.5,52.8z"/>
							<path class="st31" d="M470.8,53.9c-0.5-0.3-1.1-0.5-1.6-0.8c-0.3-0.5-0.6-1-0.9-1.5c0.5,0.3,1,0.5,1.5,0.8
								C470.2,53,470.5,53.4,470.8,53.9z"/>
							<path class="st31" d="M473,55.1c-0.5-0.3-1.1-0.6-1.6-0.8c-0.3-0.5-0.6-0.9-0.9-1.4c0.5,0.3,1,0.6,1.5,0.9
								C472.4,54.2,472.7,54.6,473,55.1z"/>
							<path class="st30" d="M406.2,56.1c-0.5,0.2-1.1,0.5-1.6,0.8c0.3-0.4,0.6-0.9,0.9-1.3c0.5-0.3,1.1-0.5,1.6-0.8
								C406.7,55.2,406.4,55.6,406.2,56.1z"/>
							<path class="st30" d="M408.5,55.1c-0.5,0.2-1.1,0.5-1.6,0.7c0.3-0.5,0.5-0.9,0.8-1.4c0.5-0.3,1.1-0.5,1.6-0.8
								C409,54.1,408.7,54.6,408.5,55.1z"/>
							<path class="st30" d="M410.8,54.2c-0.5,0.2-1.1,0.4-1.6,0.7c0.2-0.5,0.5-1,0.8-1.5c0.5-0.2,1.1-0.5,1.6-0.7
								C411.3,53.2,411,53.7,410.8,54.2z"/>
							<path class="st31" d="M413.1,53.3c-0.5,0.2-1.1,0.4-1.6,0.6c0.2-0.5,0.5-1,0.7-1.6c0.5-0.2,1.1-0.4,1.6-0.6
								C413.5,52.3,413.3,52.8,413.1,53.3z"/>
							<path class="st31" d="M415.4,52.6c-0.5,0.2-1.1,0.4-1.6,0.5c0.2-0.5,0.4-1.1,0.6-1.6c0.5-0.2,1.1-0.4,1.6-0.6
								C415.8,51.4,415.6,52,415.4,52.6z"/>
							<path class="st31" d="M417.7,51.8c-0.5,0.2-1.1,0.3-1.6,0.5c0.2-0.6,0.4-1.1,0.6-1.7c0.5-0.2,1.1-0.4,1.6-0.5
								C418.1,50.7,417.9,51.3,417.7,51.8z"/>
							<path class="st31" d="M420,51.2c-0.5,0.1-1.1,0.3-1.6,0.4c0.2-0.6,0.3-1.2,0.5-1.7c0.5-0.2,1.1-0.3,1.6-0.5
								C420.3,50,420.2,50.6,420,51.2z"/>
							<path class="st30" d="M461.5,52c-0.5-0.2-1.1-0.3-1.6-0.5c-0.2-0.6-0.3-1.2-0.5-1.7c0.5,0.2,1.1,0.3,1.6,0.5
								C461.2,50.9,461.4,51.4,461.5,52z"/>
							<path class="st30" d="M463.9,52.7c-0.5-0.2-1.1-0.4-1.6-0.5c-0.2-0.6-0.4-1.1-0.6-1.7c0.5,0.2,1.1,0.4,1.6,0.6
								C463.4,51.6,463.7,52.2,463.9,52.7z"/>
							<path class="st31" d="M466.2,53.5c-0.5-0.2-1.1-0.4-1.6-0.6c-0.2-0.5-0.4-1.1-0.6-1.6c0.5,0.2,1.1,0.4,1.6,0.6
								C465.7,52.5,465.9,53,466.2,53.5z"/>
							<path class="st31" d="M468.5,54.4c-0.5-0.2-1.1-0.4-1.6-0.6c-0.2-0.5-0.5-1-0.7-1.6c0.5,0.2,1.1,0.4,1.6,0.7
								C468,53.4,468.2,53.9,468.5,54.4z"/>
							<path class="st31" d="M470.8,55.3c-0.5-0.2-1.1-0.5-1.6-0.7c-0.2-0.5-0.5-1-0.8-1.5c0.5,0.2,1.1,0.5,1.6,0.7
								C470.3,54.4,470.5,54.9,470.8,55.3z"/>
							<path class="st31" d="M473.1,56.4c-0.5-0.2-1.1-0.5-1.6-0.7c-0.3-0.5-0.5-1-0.8-1.4c0.5,0.3,1.1,0.5,1.6,0.8
								C472.5,55.4,472.8,55.9,473.1,56.4z"/>
							<path class="st30" d="M406.3,57.6c-0.6,0.2-1.1,0.4-1.7,0.7c0.2-0.5,0.5-0.9,0.8-1.4c0.6-0.2,1.1-0.5,1.7-0.7
								C406.8,56.6,406.5,57.1,406.3,57.6z"/>
							<path class="st30" d="M408.7,56.7c-0.6,0.2-1.1,0.4-1.7,0.6c0.2-0.5,0.5-1,0.7-1.5c0.6-0.2,1.1-0.4,1.7-0.7
								C409.1,55.7,408.9,56.2,408.7,56.7z"/>
							<path class="st30" d="M411,55.9c-0.6,0.2-1.1,0.4-1.7,0.6c0.2-0.5,0.4-1,0.7-1.5c0.6-0.2,1.1-0.4,1.7-0.6
								C411.5,54.8,411.2,55.4,411,55.9z"/>
							<path class="st31" d="M413.4,55.2c-0.6,0.2-1.1,0.3-1.7,0.5c0.2-0.5,0.4-1.1,0.6-1.6c0.6-0.2,1.1-0.4,1.7-0.6
								C413.8,54.1,413.6,54.6,413.4,55.2z"/>
							<path class="st31" d="M415.8,54.5c-0.6,0.2-1.1,0.3-1.7,0.5c0.2-0.5,0.4-1.1,0.6-1.6c0.6-0.2,1.1-0.3,1.7-0.5
								C416.1,53.4,416,53.9,415.8,54.5z"/>
							<path class="st31" d="M418.2,53.9c-0.6,0.1-1.1,0.3-1.7,0.4c0.2-0.6,0.3-1.1,0.5-1.7c0.6-0.2,1.1-0.3,1.7-0.5
								C418.5,52.7,418.3,53.3,418.2,53.9z"/>
							<path class="st31" d="M420.6,53.3c-0.6,0.1-1.1,0.2-1.7,0.4c0.1-0.6,0.3-1.2,0.5-1.8c0.6-0.1,1.1-0.3,1.7-0.4
								C420.8,52.1,420.7,52.7,420.6,53.3z"/>
							<path class="st30" d="M458.6,53.4c-0.6-0.1-1.1-0.2-1.7-0.4c-0.1-0.6-0.3-1.2-0.4-1.8c0.6,0.1,1.1,0.3,1.7,0.4
								C458.3,52.2,458.5,52.8,458.6,53.4z"/>
							<path class="st30" d="M461,54c-0.6-0.1-1.1-0.3-1.7-0.4c-0.1-0.6-0.3-1.2-0.4-1.8c0.6,0.1,1.1,0.3,1.7,0.4
								C460.7,52.8,460.9,53.4,461,54z"/>
							<path class="st31" d="M463.4,54.6c-0.6-0.2-1.1-0.3-1.7-0.4c-0.2-0.6-0.3-1.1-0.5-1.7c0.6,0.2,1.1,0.3,1.7,0.5
								C463,53.5,463.2,54,463.4,54.6z"/>
							<path class="st31" d="M465.8,55.3c-0.6-0.2-1.1-0.3-1.7-0.5c-0.2-0.6-0.4-1.1-0.5-1.7c0.6,0.2,1.1,0.4,1.7,0.5
								C465.4,54.2,465.6,54.8,465.8,55.3z"/>
							<path class="st31" d="M468.1,56c-0.6-0.2-1.1-0.4-1.7-0.5c-0.2-0.5-0.4-1.1-0.6-1.6c0.6,0.2,1.1,0.4,1.7,0.6
								C467.7,55,467.9,55.5,468.1,56z"/>
							<path class="st31" d="M470.5,56.9c-0.6-0.2-1.1-0.4-1.7-0.6c-0.2-0.5-0.4-1-0.7-1.5c0.6,0.2,1.1,0.4,1.7,0.6
								C470.1,55.9,470.3,56.4,470.5,56.9z"/>
							<path class="st31" d="M472.9,57.7c-0.6-0.2-1.1-0.4-1.7-0.6c-0.2-0.5-0.5-1-0.7-1.5c0.6,0.2,1.1,0.5,1.7,0.7
								C472.4,56.8,472.7,57.3,472.9,57.7z"/>
							<path class="st30" d="M406.7,59.1c-0.6,0.2-1.2,0.4-1.7,0.6c0.2-0.5,0.4-0.9,0.7-1.4c0.6-0.2,1.1-0.4,1.7-0.6
								C407.1,58.1,406.9,58.6,406.7,59.1z"/>
							<path class="st30" d="M409.1,58.3c-0.6,0.2-1.2,0.3-1.7,0.5c0.2-0.5,0.4-1,0.6-1.5c0.6-0.2,1.1-0.4,1.7-0.6
								C409.5,57.3,409.3,57.8,409.1,58.3z"/>
							<path class="st31" d="M411.5,57.7c-0.6,0.2-1.2,0.3-1.7,0.5c0.2-0.5,0.4-1,0.6-1.6c0.6-0.2,1.1-0.4,1.7-0.5
								C411.9,56.6,411.7,57.1,411.5,57.7z"/>
							<path class="st31" d="M414,57c-0.6,0.1-1.2,0.3-1.7,0.4c0.2-0.5,0.3-1.1,0.5-1.6c0.6-0.2,1.1-0.3,1.7-0.5
								C414.3,55.9,414.1,56.5,414,57z"/>
							<path class="st31" d="M416.4,56.5c-0.6,0.1-1.2,0.3-1.7,0.4c0.2-0.6,0.3-1.1,0.5-1.7c0.6-0.2,1.1-0.3,1.7-0.4
								C416.7,55.3,416.6,55.9,416.4,56.5z"/>
							<path class="st31" d="M418.9,56c-0.6,0.1-1.2,0.2-1.7,0.4c0.1-0.6,0.3-1.2,0.4-1.7c0.6-0.1,1.1-0.3,1.7-0.4
								C419.1,54.8,419,55.4,418.9,56z"/>
							<path class="st31" d="M421.3,55.5c-0.6,0.1-1.2,0.2-1.7,0.3c0.1-0.6,0.2-1.2,0.4-1.8c0.6-0.1,1.1-0.2,1.7-0.3
								C421.5,54.3,421.4,54.9,421.3,55.5z"/>
							<path class="st30" d="M455.5,55.2c-0.6-0.1-1.2-0.2-1.7-0.3c-0.1-0.6-0.2-1.2-0.3-1.9c0.6,0.1,1.1,0.2,1.7,0.3
								C455.3,54,455.4,54.6,455.5,55.2z"/>
							<path class="st30" d="M458,55.6c-0.6-0.1-1.2-0.2-1.7-0.3c-0.1-0.6-0.2-1.2-0.3-1.8c0.6,0.1,1.1,0.2,1.7,0.3
								C457.7,54.4,457.9,55,458,55.6z"/>
							<path class="st31" d="M460.4,56.1c-0.6-0.1-1.2-0.2-1.7-0.3c-0.1-0.6-0.2-1.2-0.4-1.8c0.6,0.1,1.1,0.2,1.7,0.4
								C460.2,54.9,460.3,55.5,460.4,56.1z"/>
							<path class="st31" d="M462.9,56.6c-0.6-0.1-1.2-0.3-1.7-0.4c-0.1-0.6-0.3-1.2-0.4-1.7c0.6,0.1,1.1,0.3,1.7,0.4
								C462.6,55.5,462.7,56,462.9,56.6z"/>
							<path class="st31" d="M465.3,57.2c-0.6-0.1-1.2-0.3-1.7-0.4c-0.1-0.6-0.3-1.1-0.5-1.7c0.6,0.1,1.1,0.3,1.7,0.5
								C465,56.1,465.1,56.6,465.3,57.2z"/>
							<path class="st31" d="M467.8,57.8c-0.6-0.2-1.2-0.3-1.7-0.5c-0.2-0.5-0.3-1.1-0.5-1.6c0.6,0.2,1.1,0.3,1.7,0.5
								C467.4,56.8,467.6,57.3,467.8,57.8z"/>
							<path class="st31" d="M470.2,58.5c-0.6-0.2-1.2-0.3-1.7-0.5c-0.2-0.5-0.4-1-0.6-1.6c0.6,0.2,1.1,0.4,1.7,0.5
								C469.8,57.5,470,58,470.2,58.5z"/>
							<path class="st31" d="M472.6,59.3c-0.6-0.2-1.2-0.4-1.7-0.5c-0.2-0.5-0.4-1-0.6-1.5c0.6,0.2,1.1,0.4,1.7,0.6
								C472.2,58.3,472.4,58.8,472.6,59.3z"/>
							<path class="st30" d="M475.1,60.1c-0.6-0.2-1.2-0.4-1.7-0.6c-0.2-0.5-0.4-1-0.7-1.4c0.6,0.2,1.1,0.4,1.7,0.6
								C474.6,59.2,474.9,59.6,475.1,60.1z"/>
							<path class="st30" d="M404.6,61.4c-0.6,0.2-1.2,0.3-1.8,0.5c0.2-0.5,0.4-0.9,0.6-1.4c0.6-0.2,1.2-0.4,1.8-0.6
								C405,60.5,404.8,61,404.6,61.4z"/>
							<path class="st30" d="M407.1,60.8c-0.6,0.2-1.2,0.3-1.8,0.5c0.2-0.5,0.4-1,0.6-1.5c0.6-0.2,1.2-0.4,1.8-0.5
								C407.4,59.8,407.3,60.3,407.1,60.8z"/>
							<path class="st31" d="M409.6,60.1c-0.6,0.1-1.2,0.3-1.8,0.4c0.2-0.5,0.3-1,0.5-1.5c0.6-0.2,1.2-0.3,1.8-0.5
								C409.9,59.1,409.7,59.6,409.6,60.1z"/>
							<path class="st31" d="M412.1,59.6c-0.6,0.1-1.2,0.3-1.8,0.4c0.2-0.5,0.3-1.1,0.5-1.6c0.6-0.2,1.2-0.3,1.8-0.4
								C412.4,58.5,412.2,59,412.1,59.6z"/>
							<path class="st31" d="M414.6,59c-0.6,0.1-1.2,0.2-1.8,0.4c0.1-0.5,0.3-1.1,0.4-1.6c0.6-0.1,1.2-0.3,1.8-0.4
								C414.9,57.9,414.7,58.5,414.6,59z"/>
							<path class="st31" d="M417.1,58.6c-0.6,0.1-1.2,0.2-1.8,0.3c0.1-0.6,0.3-1.1,0.4-1.7c0.6-0.1,1.2-0.2,1.8-0.4
								C417.3,57.4,417.2,58,417.1,58.6z"/>
							<path class="st31" d="M419.6,58.1c-0.6,0.1-1.2,0.2-1.8,0.3c0.1-0.6,0.2-1.2,0.4-1.8c0.6-0.1,1.2-0.2,1.8-0.3
								C419.8,56.9,419.7,57.5,419.6,58.1z"/>
							<path class="st31" d="M459.6,58.2c-0.6-0.1-1.2-0.2-1.8-0.3c-0.1-0.6-0.2-1.2-0.3-1.8c0.6,0.1,1.2,0.2,1.8,0.3
								C459.4,57,459.5,57.6,459.6,58.2z"/>
							<path class="st31" d="M462.1,58.6c-0.6-0.1-1.2-0.2-1.8-0.3c-0.1-0.6-0.2-1.2-0.3-1.8c0.6,0.1,1.2,0.2,1.8,0.3
								C461.9,57.5,462,58.1,462.1,58.6z"/>
							<path class="st31" d="M464.6,59.1c-0.6-0.1-1.2-0.2-1.8-0.4c-0.1-0.6-0.3-1.1-0.4-1.7c0.6,0.1,1.2,0.3,1.8,0.4
								C464.3,58,464.5,58.6,464.6,59.1z"/>
							<path class="st31" d="M467.1,59.7c-0.6-0.1-1.2-0.3-1.8-0.4c-0.1-0.6-0.3-1.1-0.4-1.7c0.6,0.1,1.2,0.3,1.8,0.4
								C466.8,58.6,467,59.1,467.1,59.7z"/>
							<path class="st31" d="M469.6,60.2c-0.6-0.1-1.2-0.3-1.8-0.4c-0.2-0.5-0.3-1.1-0.5-1.6c0.6,0.2,1.2,0.3,1.8,0.5
								C469.3,59.2,469.5,59.7,469.6,60.2z"/>
							<path class="st31" d="M472.1,60.9c-0.6-0.2-1.2-0.3-1.8-0.5c-0.2-0.5-0.3-1-0.5-1.5c0.6,0.2,1.2,0.3,1.8,0.5
								C471.8,59.9,471.9,60.4,472.1,60.9z"/>
							<path class="st30" d="M474.6,61.6c-0.6-0.2-1.2-0.3-1.8-0.5c-0.2-0.5-0.4-1-0.6-1.5c0.6,0.2,1.2,0.4,1.8,0.5
								C474.2,60.6,474.4,61.1,474.6,61.6z"/>
							<path class="st30" d="M405.2,63.1c-0.6,0.1-1.2,0.3-1.8,0.4c0.2-0.5,0.3-0.9,0.5-1.4c0.6-0.2,1.2-0.3,1.8-0.5
								C405.5,62.1,405.4,62.6,405.2,63.1z"/>
							<path class="st31" d="M407.8,62.5c-0.6,0.1-1.2,0.3-1.8,0.4c0.1-0.5,0.3-1,0.5-1.5c0.6-0.2,1.2-0.3,1.8-0.4
								C408.1,61.5,407.9,62,407.8,62.5z"/>
							<path class="st31" d="M410.3,62c-0.6,0.1-1.2,0.2-1.8,0.4c0.1-0.5,0.3-1,0.4-1.6c0.6-0.1,1.2-0.3,1.8-0.4
								C410.6,60.9,410.5,61.5,410.3,62z"/>
							<path class="st31" d="M412.9,61.5c-0.6,0.1-1.2,0.2-1.8,0.3c0.1-0.5,0.3-1.1,0.4-1.6c0.6-0.1,1.2-0.3,1.8-0.4
								C413.1,60.4,413,61,412.9,61.5z"/>
							<path class="st31" d="M415.4,61.1c-0.6,0.1-1.2,0.2-1.8,0.3c0.1-0.6,0.2-1.1,0.4-1.7c0.6-0.1,1.2-0.2,1.8-0.3
								C415.6,59.9,415.5,60.5,415.4,61.1z"/>
							<path class="st31" d="M418,60.7c-0.6,0.1-1.2,0.2-1.8,0.3c0.1-0.6,0.2-1.2,0.3-1.7c0.6-0.1,1.2-0.2,1.8-0.3
								C418.2,59.5,418.1,60.1,418,60.7z"/>
							<path class="st31" d="M461.3,60.8c-0.6-0.1-1.2-0.2-1.8-0.3c-0.1-0.6-0.2-1.2-0.3-1.8c0.6,0.1,1.2,0.2,1.8,0.3
								C461.1,59.6,461.2,60.2,461.3,60.8z"/>
							<path class="st31" d="M463.9,61.2c-0.6-0.1-1.2-0.2-1.8-0.3c-0.1-0.6-0.2-1.2-0.3-1.7c0.6,0.1,1.2,0.2,1.8,0.3
								C463.7,60,463.8,60.6,463.9,61.2z"/>
							<path class="st31" d="M474.1,63.2c-0.6-0.1-1.2-0.3-1.8-0.4c-0.1-0.5-0.3-1-0.5-1.5c0.6,0.1,1.2,0.3,1.8,0.5
								C473.8,62.2,473.9,62.7,474.1,63.2z"/>
							<path class="st30" d="M476.6,63.8c-0.6-0.2-1.2-0.3-1.8-0.4c-0.2-0.5-0.3-1-0.5-1.4c0.6,0.2,1.2,0.3,1.8,0.5
								C476.3,62.9,476.5,63.3,476.6,63.8z"/>
							<path class="st30" d="M403.3,65.3c-0.6,0.1-1.2,0.2-1.8,0.4c0.1-0.5,0.3-0.9,0.4-1.4c0.6-0.1,1.2-0.3,1.8-0.4
								C403.6,64.3,403.4,64.8,403.3,65.3z"/>
							<path class="st30" d="M405.9,64.8c-0.6,0.1-1.2,0.2-1.8,0.3c0.1-0.5,0.3-1,0.4-1.5c0.6-0.1,1.2-0.3,1.8-0.4
								C406.2,63.8,406,64.3,405.9,64.8z"/>
							<path class="st31" d="M408.5,64.4c-0.6,0.1-1.2,0.2-1.8,0.3c0.1-0.5,0.2-1,0.4-1.5c0.6-0.1,1.2-0.2,1.8-0.4
								C408.7,63.3,408.6,63.8,408.5,64.4z"/>
							<path class="st31" d="M411.1,64c-0.6,0.1-1.2,0.2-1.8,0.3c0.1-0.5,0.2-1.1,0.4-1.6c0.6-0.1,1.2-0.2,1.8-0.3
								C411.3,62.9,411.2,63.4,411.1,64z"/>
							<path class="st31" d="M413.7,63.6c-0.6,0.1-1.2,0.2-1.8,0.3c0.1-0.5,0.2-1.1,0.3-1.6c0.6-0.1,1.2-0.2,1.8-0.3
								C413.9,62.5,413.8,63,413.7,63.6z"/>
							<path class="st31" d="M473.3,64.9c-0.6-0.1-1.2-0.2-1.8-0.3c-0.1-0.5-0.2-1-0.4-1.5c0.6,0.1,1.2,0.2,1.8,0.4
								C473.1,63.9,473.2,64.4,473.3,64.9z"/>
							<path class="st30" d="M404.2,67c-0.6,0.1-1.2,0.2-1.9,0.3c0.1-0.5,0.2-0.9,0.4-1.4c0.6-0.1,1.2-0.2,1.9-0.3
								C404.4,66.1,404.3,66.5,404.2,67z"/>
							<path class="st31" d="M406.8,66.7c-0.6,0.1-1.2,0.2-1.9,0.3c0.1-0.5,0.2-1,0.3-1.5c0.6-0.1,1.2-0.2,1.9-0.3
								C407,65.6,406.9,66.1,406.8,66.7z"/>
							<path class="st31" d="M409.4,66.3c-0.6,0.1-1.2,0.2-1.9,0.2c0.1-0.5,0.2-1,0.3-1.6c0.6-0.1,1.2-0.2,1.9-0.3
								C409.6,65.2,409.5,65.8,409.4,66.3z"/>
							<path class="st31" d="M412.1,66c-0.6,0.1-1.2,0.1-1.9,0.2c0.1-0.5,0.2-1.1,0.3-1.6c0.6-0.1,1.2-0.2,1.9-0.3
								C412.2,64.9,412.2,65.4,412.1,66z"/>
							<path class="st31" d="M414.7,65.7c-0.6,0.1-1.2,0.1-1.9,0.2c0.1-0.6,0.2-1.1,0.3-1.7c0.6-0.1,1.2-0.2,1.9-0.2
								C414.9,64.6,414.8,65.1,414.7,65.7z"/>
							<path class="st31" d="M472.5,66.7c-0.6-0.1-1.2-0.2-1.9-0.3c-0.1-0.5-0.2-1-0.3-1.6c0.6,0.1,1.2,0.2,1.9,0.3
								C472.3,65.7,472.4,66.2,472.5,66.7z"/>
							<path class="st30" d="M402.4,69.2c-0.6,0.1-1.3,0.1-1.9,0.2c0.1-0.5,0.2-0.9,0.3-1.4c0.6-0.1,1.3-0.2,1.9-0.3
								C402.6,68.2,402.5,68.7,402.4,69.2z"/>
							<path class="st30" d="M405.1,68.9c-0.6,0.1-1.3,0.1-1.9,0.2c0.1-0.5,0.2-1,0.3-1.5c0.6-0.1,1.3-0.2,1.9-0.3
								C405.3,67.9,405.2,68.4,405.1,68.9z"/>
							<path class="st31" d="M407.8,68.6c-0.6,0.1-1.3,0.1-1.9,0.2c0.1-0.5,0.2-1,0.2-1.5c0.6-0.1,1.3-0.2,1.9-0.2
								C407.9,67.6,407.8,68.1,407.8,68.6z"/>
							<path class="st31" d="M410.4,68.4c-0.6,0.1-1.3,0.1-1.9,0.2c0.1-0.5,0.1-1.1,0.2-1.6c0.6-0.1,1.3-0.1,1.9-0.2
								C410.5,67.3,410.5,67.8,410.4,68.4z"/>
							<path class="st30" d="M474.1,68.9c-0.6-0.1-1.3-0.1-1.9-0.2c-0.1-0.5-0.2-1-0.2-1.5c0.6,0.1,1.3,0.2,1.9,0.2
								C474,67.9,474.1,68.4,474.1,68.9z"/>
							<path class="st30" d="M403.6,71c-0.6,0-1.3,0.1-1.9,0.1c0.1-0.5,0.1-0.9,0.2-1.4c0.6-0.1,1.3-0.1,1.9-0.2
								C403.7,70,403.6,70.5,403.6,71z"/>
							<path class="st31" d="M406.2,70.8c-0.6,0-1.3,0.1-1.9,0.1c0.1-0.5,0.1-1,0.2-1.5c0.6-0.1,1.3-0.1,1.9-0.2
								C406.3,69.8,406.3,70.3,406.2,70.8z"/>
							<path class="st31" d="M408.9,70.6c-0.6,0-1.3,0.1-1.9,0.1c0-0.5,0.1-1,0.2-1.6c0.6-0.1,1.3-0.1,1.9-0.2
								C409,69.6,409,70.1,408.9,70.6z"/>
							<path class="st30" d="M402,73.1c-0.6,0-1.3,0.1-1.9,0.1c0-0.5,0.1-0.9,0.1-1.4c0.6,0,1.3-0.1,1.9-0.1
								C402.1,72.1,402,72.6,402,73.1z"/>
							<path class="st30" d="M404.7,72.9c-0.6,0-1.3,0-1.9,0.1c0-0.5,0.1-1,0.1-1.5c0.6,0,1.3-0.1,1.9-0.1
								C404.8,71.9,404.7,72.4,404.7,72.9z"/>
							<path class="st31" d="M407.4,72.8c-0.6,0-1.3,0-1.9,0.1c0-0.5,0.1-1,0.1-1.5c0.6,0,1.3-0.1,1.9-0.1
								C407.4,71.8,407.4,72.3,407.4,72.8z"/>
							<path class="st30" d="M403.3,75c-0.6,0-1.3,0-1.9,0c0-0.5,0-0.9,0-1.4c0.6,0,1.3,0,1.9-0.1C403.4,74,403.3,74.5,403.3,75z"/>
							<path class="st31" d="M406,75c-0.6,0-1.3,0-1.9,0c0-0.5,0-1,0-1.5c0.6,0,1.3,0,1.9-0.1C406,73.9,406,74.5,406,75z"/>
							<path class="st31" d="M470.6,75c-0.6,0-1.3,0-1.9,0c0-0.5,0-1.1,0-1.6c0.6,0,1.3,0,1.9,0C470.6,73.9,470.6,74.4,470.6,75z"/>
							<path class="st30" d="M402,76.9c-0.6,0-1.3,0-1.9-0.1c0-0.5,0-0.9,0-1.4c0.6,0,1.3,0,1.9,0C401.9,76,402,76.4,402,76.9z"/>
							<path class="st30" d="M404.7,77c-0.6,0-1.3,0-1.9-0.1c0-0.5,0-1,0-1.5c0.6,0,1.3,0,1.9,0C404.6,76,404.6,76.5,404.7,77z"/>
							<path class="st30" d="M428.9,77.5c-0.6,0-1.3,0-1.9,0c0-0.6,0-1.3,0-1.9c0.6,0,1.3,0,1.9,0C428.9,76.2,428.9,76.8,428.9,77.5
								z"/>
							<path class="st31" d="M469.2,77.1c-0.6,0-1.3,0-1.9,0c0-0.6,0-1.1,0-1.7c0.6,0,1.3,0,1.9,0C469.2,76.1,469.2,76.6,469.2,77.1
								z"/>
							<path class="st31" d="M471.9,77.1c-0.6,0-1.3,0-1.9,0.1c0-0.5,0-1.1,0-1.6c0.6,0,1.3,0,1.9,0C471.9,76,471.9,76.6,471.9,77.1
								z"/>
							<path class="st30" d="M474.6,77c-0.6,0-1.3,0-1.9,0.1c0-0.5,0-1,0-1.5c0.6,0,1.3,0,1.9,0C474.6,76,474.6,76.5,474.6,77z"/>
							<path class="st30" d="M477.3,76.9c-0.6,0-1.3,0-1.9,0.1c0-0.5,0-1,0-1.5c0.6,0,1.3,0,1.9,0C477.3,76,477.3,76.4,477.3,76.9z"
								/>
							<path class="st30" d="M403.5,79c-0.6,0-1.3-0.1-1.9-0.1c0-0.5-0.1-0.9-0.1-1.4c0.6,0,1.3,0.1,1.9,0.1
								C403.4,78,403.5,78.5,403.5,79z"/>
							<path class="st31" d="M406.2,79.1c-0.6,0-1.3-0.1-1.9-0.1c0-0.5-0.1-1-0.1-1.5c0.6,0,1.3,0,1.9,0.1
								C406.1,78.1,406.1,78.6,406.2,79.1z"/>
							<path class="st30" d="M427.6,80c-0.6,0-1.3,0-1.9,0c0-0.6,0-1.3,0-1.9c0.6,0,1.3,0,1.9,0C427.6,78.8,427.6,79.4,427.6,80z"/>
							<path class="st31" d="M430.3,80.1c-0.6,0-1.3,0-1.9,0c0-0.6,0-1.3,0-1.9c0.6,0,1.3,0,1.9,0C430.3,78.8,430.3,79.4,430.3,80.1
								z"/>
							<path class="st31" d="M470.5,79.2c-0.6,0-1.3,0.1-1.9,0.1c0-0.5,0.1-1.1,0.1-1.6c0.6,0,1.3,0,1.9-0.1
								C470.5,78.2,470.5,78.7,470.5,79.2z"/>
							<path class="st30" d="M473.2,79.1c-0.6,0-1.3,0.1-1.9,0.1c0-0.5,0.1-1,0.1-1.6c0.6,0,1.3,0,1.9-0.1
								C473.2,78.1,473.2,78.6,473.2,79.1z"/>
							<path class="st30" d="M475.8,78.9c-0.6,0-1.3,0.1-1.9,0.1c0-0.5,0.1-1,0.1-1.5c0.6,0,1.3,0,1.9-0.1
								C475.9,77.9,475.9,78.4,475.8,78.9z"/>
							<path class="st30" d="M478.5,78.7c-0.6,0-1.3,0.1-1.9,0.1c0-0.5,0.1-1,0.1-1.4c0.6,0,1.3-0.1,1.9-0.1
								C478.6,77.8,478.6,78.3,478.5,78.7z"/>
							<path class="st30" d="M402.4,80.8c-0.6-0.1-1.3-0.1-1.9-0.2c-0.1-0.5-0.1-0.9-0.2-1.4c0.6,0.1,1.3,0.1,1.9,0.2
								C402.2,79.8,402.3,80.3,402.4,80.8z"/>
							<path class="st30" d="M405,81.1c-0.6-0.1-1.3-0.1-1.9-0.2c-0.1-0.5-0.1-1-0.2-1.5c0.6,0,1.3,0.1,1.9,0.1
								C404.9,80.1,405,80.6,405,81.1z"/>
							<path class="st30" d="M423.7,82.4c-0.6,0-1.3-0.1-1.9-0.1c0-0.6-0.1-1.2-0.1-1.8c0.6,0,1.3,0,1.9,0.1
								C423.6,81.2,423.6,81.8,423.7,82.4z"/>
							<path class="st30" d="M426.3,82.5c-0.6,0-1.3,0-1.9-0.1c0-0.6-0.1-1.2-0.1-1.9c0.6,0,1.3,0,1.9,0.1
								C426.3,81.3,426.3,81.9,426.3,82.5z"/>
							<path class="st31" d="M429,82.6c-0.6,0-1.3,0-1.9-0.1c0-0.6,0-1.3-0.1-1.9c0.6,0,1.3,0,1.9,0C428.9,81.3,429,82,429,82.6z"/>
							<path class="st31" d="M468.9,81.5c-0.6,0.1-1.3,0.1-1.9,0.2c0.1-0.6,0.1-1.1,0.1-1.7c0.6,0,1.3-0.1,1.9-0.1
								C469,80.4,468.9,81,468.9,81.5z"/>
							<path class="st31" d="M471.5,81.3c-0.6,0.1-1.3,0.1-1.9,0.2c0.1-0.5,0.1-1.1,0.2-1.6c0.6,0,1.3-0.1,1.9-0.1
								C471.7,80.2,471.6,80.8,471.5,81.3z"/>
							<path class="st30" d="M474.2,81c-0.6,0.1-1.3,0.1-1.9,0.2c0.1-0.5,0.1-1,0.2-1.5c0.6,0,1.3-0.1,1.9-0.1
								C474.3,80,474.3,80.5,474.2,81z"/>
							<path class="st30" d="M476.9,80.7c-0.6,0.1-1.3,0.1-1.9,0.2c0.1-0.5,0.1-1,0.2-1.5c0.6,0,1.3-0.1,1.9-0.1
								C477,79.8,476.9,80.3,476.9,80.7z"/>
							<path class="st30" d="M404.1,82.9c-0.6-0.1-1.3-0.2-1.9-0.3c-0.1-0.5-0.2-0.9-0.3-1.4c0.6,0.1,1.3,0.1,1.9,0.2
								C403.9,81.9,404,82.4,404.1,82.9z"/>
							<path class="st30" d="M422.5,84.8c-0.6,0-1.3-0.1-1.9-0.1c-0.1-0.6-0.1-1.2-0.1-1.8c0.6,0,1.3,0.1,1.9,0.1
								C422.5,83.6,422.5,84.2,422.5,84.8z"/>
							<path class="st30" d="M425.2,85c-0.6,0-1.3-0.1-1.9-0.1c0-0.6-0.1-1.2-0.1-1.8c0.6,0,1.3,0.1,1.9,0.1
								C425.1,83.7,425.1,84.4,425.2,85z"/>
							<path class="st31" d="M427.8,85.1c-0.6,0-1.3-0.1-1.9-0.1c0-0.6-0.1-1.3-0.1-1.9c0.6,0,1.3,0.1,1.9,0.1
								C427.7,83.9,427.8,84.5,427.8,85.1z"/>
							<path class="st31" d="M467.3,83.8c-0.6,0.1-1.3,0.1-1.9,0.2c0.1-0.6,0.1-1.1,0.2-1.7c0.6-0.1,1.3-0.1,1.9-0.2
								C467.5,82.7,467.4,83.3,467.3,83.8z"/>
							<path class="st31" d="M470,83.5c-0.6,0.1-1.3,0.1-1.9,0.2c0.1-0.5,0.1-1.1,0.2-1.6c0.6-0.1,1.3-0.1,1.9-0.2
								C470.1,82.5,470.1,83,470,83.5z"/>
							<path class="st30" d="M472.6,83.2c-0.6,0.1-1.3,0.2-1.9,0.2c0.1-0.5,0.2-1,0.2-1.6c0.6-0.1,1.3-0.1,1.9-0.2
								C472.8,82.2,472.7,82.7,472.6,83.2z"/>
							<path class="st30" d="M475.2,82.8c-0.6,0.1-1.3,0.2-1.9,0.3c0.1-0.5,0.2-1,0.3-1.5c0.6-0.1,1.3-0.1,1.9-0.2
								C475.4,81.9,475.3,82.4,475.2,82.8z"/>
							<path class="st30" d="M477.9,82.5c-0.6,0.1-1.3,0.2-1.9,0.3c0.1-0.5,0.2-1,0.3-1.4c0.6-0.1,1.3-0.1,1.9-0.2
								C478.1,81.5,478,82,477.9,82.5z"/>
							<path class="st30" d="M403.2,84.7c-0.6-0.1-1.2-0.2-1.9-0.4c-0.1-0.5-0.3-0.9-0.4-1.4c0.6,0.1,1.2,0.2,1.9,0.3
								C402.9,83.7,403.1,84.2,403.2,84.7z"/>
							<path class="st30" d="M421.4,87.2c-0.6-0.1-1.2-0.1-1.9-0.2c-0.1-0.6-0.1-1.2-0.2-1.8c0.6,0.1,1.2,0.1,1.9,0.2
								C421.3,86,421.3,86.6,421.4,87.2z"/>
							<path class="st30" d="M424,87.4c-0.6,0-1.2-0.1-1.9-0.2c-0.1-0.6-0.1-1.2-0.2-1.8c0.6,0,1.2,0.1,1.9,0.1
								C423.9,86.2,423.9,86.8,424,87.4z"/>
							<path class="st31" d="M426.6,87.6c-0.6,0-1.2-0.1-1.9-0.1c-0.1-0.6-0.1-1.2-0.1-1.9c0.6,0,1.2,0.1,1.9,0.1
								C426.5,86.3,426.6,87,426.6,87.6z"/>
							<path class="st31" d="M468.2,85.9c-0.6,0.1-1.2,0.2-1.9,0.3c0.1-0.6,0.2-1.1,0.3-1.7c0.6-0.1,1.2-0.1,1.9-0.2
								C468.4,84.8,468.3,85.3,468.2,85.9z"/>
							<path class="st31" d="M470.8,85.5c-0.6,0.1-1.2,0.2-1.9,0.3c0.1-0.5,0.2-1.1,0.3-1.6c0.6-0.1,1.2-0.2,1.9-0.2
								C471.1,84.4,471,85,470.8,85.5z"/>
							<path class="st30" d="M473.4,85c-0.6,0.1-1.2,0.2-1.9,0.3c0.1-0.5,0.2-1,0.3-1.5c0.6-0.1,1.2-0.2,1.9-0.3
								C473.7,84.1,473.6,84.5,473.4,85z"/>
							<path class="st30" d="M476,84.6c-0.6,0.1-1.2,0.2-1.9,0.3c0.1-0.5,0.2-1,0.3-1.5c0.6-0.1,1.2-0.2,1.9-0.3
								C476.3,83.6,476.2,84.1,476,84.6z"/>
							<path class="st30" d="M420.4,89.5c-0.6-0.1-1.2-0.1-1.8-0.2c-0.1-0.6-0.2-1.2-0.2-1.8c0.6,0.1,1.2,0.1,1.8,0.2
								C420.3,88.3,420.4,88.9,420.4,89.5z"/>
							<path class="st30" d="M423,89.8c-0.6-0.1-1.2-0.1-1.8-0.2c-0.1-0.6-0.1-1.2-0.2-1.8c0.6,0.1,1.2,0.1,1.8,0.2
								C422.9,88.6,422.9,89.2,423,89.8z"/>
							<path class="st31" d="M425.6,90c-0.6-0.1-1.2-0.1-1.8-0.2c-0.1-0.6-0.1-1.2-0.2-1.8c0.6,0.1,1.2,0.1,1.8,0.1
								C425.5,88.8,425.5,89.4,425.6,90z"/>
							<path class="st31" d="M466.6,88.3c-0.6,0.1-1.2,0.2-1.8,0.3c0.1-0.6,0.2-1.1,0.3-1.7c0.6-0.1,1.2-0.2,1.8-0.3
								C466.8,87.2,466.7,87.7,466.6,88.3z"/>
							<path class="st31" d="M469.1,87.8c-0.6,0.1-1.2,0.2-1.8,0.3c0.1-0.5,0.2-1.1,0.3-1.6c0.6-0.1,1.2-0.2,1.8-0.3
								C469.4,86.8,469.3,87.3,469.1,87.8z"/>
							<path class="st30" d="M471.7,87.3c-0.6,0.1-1.2,0.2-1.8,0.4c0.1-0.5,0.3-1,0.4-1.6c0.6-0.1,1.2-0.2,1.8-0.3
								C472,86.3,471.8,86.8,471.7,87.3z"/>
							<path class="st30" d="M474.3,86.8c-0.6,0.1-1.2,0.3-1.8,0.4c0.1-0.5,0.3-1,0.4-1.5c0.6-0.1,1.2-0.2,1.8-0.3
								C474.5,85.8,474.4,86.3,474.3,86.8z"/>
							<path class="st30" d="M476.8,86.2c-0.6,0.1-1.2,0.3-1.8,0.4c0.2-0.5,0.3-1,0.4-1.4c0.6-0.1,1.2-0.2,1.8-0.4
								C477.1,85.3,477,85.7,476.8,86.2z"/>
							<path class="st30" d="M419.5,91.7c-0.6-0.1-1.2-0.2-1.8-0.3c-0.1-0.6-0.2-1.2-0.3-1.8c0.6,0.1,1.2,0.2,1.8,0.3
								C419.3,90.5,419.4,91.1,419.5,91.7z"/>
							<path class="st31" d="M422,92.1c-0.6-0.1-1.2-0.2-1.8-0.3c-0.1-0.6-0.2-1.2-0.3-1.8c0.6,0.1,1.2,0.2,1.8,0.2
								C421.8,90.9,421.9,91.5,422,92.1z"/>
							<path class="st31" d="M424.5,92.4c-0.6-0.1-1.2-0.1-1.8-0.2c-0.1-0.6-0.2-1.2-0.2-1.8c0.6,0.1,1.2,0.1,1.8,0.2
								C424.4,91.2,424.4,91.8,424.5,92.4z"/>
							<path class="st31" d="M464.7,90.8c-0.6,0.1-1.2,0.2-1.8,0.3c0.1-0.6,0.2-1.1,0.3-1.7c0.6-0.1,1.2-0.2,1.8-0.3
								C465,89.7,464.9,90.2,464.7,90.8z"/>
							<path class="st31" d="M467.3,90.3c-0.6,0.1-1.2,0.3-1.8,0.4c0.1-0.6,0.3-1.1,0.4-1.7c0.6-0.1,1.2-0.2,1.8-0.3
								C467.5,89.2,467.4,89.7,467.3,90.3z"/>
							<path class="st30" d="M469.8,89.7c-0.6,0.1-1.2,0.3-1.8,0.4c0.1-0.5,0.3-1.1,0.4-1.6c0.6-0.1,1.2-0.2,1.8-0.4
								C470.1,88.6,469.9,89.2,469.8,89.7z"/>
							<path class="st30" d="M472.3,89.1c-0.6,0.2-1.2,0.3-1.8,0.4c0.2-0.5,0.3-1,0.4-1.5c0.6-0.1,1.2-0.3,1.8-0.4
								C472.6,88.1,472.5,88.6,472.3,89.1z"/>
							<path class="st30" d="M474.8,88.4c-0.6,0.2-1.2,0.3-1.8,0.5c0.2-0.5,0.3-1,0.5-1.5c0.6-0.1,1.2-0.3,1.8-0.4
								C475.2,87.5,475,87.9,474.8,88.4z"/>
							<path class="st30" d="M418.7,93.9c-0.6-0.1-1.2-0.2-1.8-0.3c-0.1-0.6-0.3-1.2-0.4-1.7c0.6,0.1,1.2,0.2,1.8,0.3
								C418.5,92.7,418.6,93.3,418.7,93.9z"/>
							<path class="st31" d="M421.2,94.3c-0.6-0.1-1.2-0.2-1.8-0.3c-0.1-0.6-0.2-1.2-0.3-1.8c0.6,0.1,1.2,0.2,1.8,0.3
								C421,93.1,421.1,93.7,421.2,94.3z"/>
							<path class="st31" d="M423.7,94.7c-0.6-0.1-1.2-0.2-1.8-0.3c-0.1-0.6-0.2-1.2-0.3-1.8c0.6,0.1,1.2,0.2,1.8,0.2
								C423.5,93.5,423.6,94.1,423.7,94.7z"/>
							<path class="st31" d="M426.1,95.1c-0.6-0.1-1.2-0.1-1.8-0.2c-0.1-0.6-0.2-1.2-0.3-1.8c0.6,0.1,1.2,0.1,1.8,0.2
								C426,93.8,426,94.4,426.1,95.1z"/>
							<path class="st31" d="M463,93.3c-0.6,0.1-1.2,0.2-1.8,0.4c0.1-0.6,0.3-1.2,0.4-1.7c0.6-0.1,1.2-0.2,1.8-0.3
								C463.3,92.2,463.2,92.7,463,93.3z"/>
							<path class="st31" d="M465.5,92.7c-0.6,0.1-1.2,0.3-1.8,0.4c0.1-0.6,0.3-1.1,0.4-1.7c0.6-0.1,1.2-0.2,1.8-0.4
								C465.8,91.6,465.6,92.2,465.5,92.7z"/>
							<path class="st31" d="M467.9,92.1c-0.6,0.2-1.2,0.3-1.8,0.4c0.2-0.5,0.3-1.1,0.5-1.6c0.6-0.1,1.2-0.3,1.8-0.4
								C468.3,91,468.1,91.6,467.9,92.1z"/>
							<path class="st30" d="M470.4,91.4c-0.6,0.2-1.2,0.3-1.8,0.5c0.2-0.5,0.3-1,0.5-1.6c0.6-0.1,1.2-0.3,1.8-0.4
								C470.7,90.4,470.6,90.9,470.4,91.4z"/>
							<path class="st30" d="M472.8,90.7c-0.6,0.2-1.2,0.4-1.8,0.5c0.2-0.5,0.4-1,0.5-1.5c0.6-0.2,1.2-0.3,1.8-0.5
								C473.2,89.7,473,90.2,472.8,90.7z"/>
							<path class="st30" d="M475.3,89.9c-0.6,0.2-1.2,0.4-1.8,0.6c0.2-0.5,0.4-1,0.6-1.4c0.6-0.2,1.2-0.3,1.8-0.5
								C475.7,89,475.5,89.5,475.3,89.9z"/>
							<path class="st30" d="M418,96c-0.6-0.1-1.1-0.3-1.7-0.4c-0.2-0.6-0.3-1.1-0.5-1.7c0.6,0.1,1.2,0.3,1.7,0.4
								C417.7,94.8,417.9,95.4,418,96z"/>
							<path class="st31" d="M420.4,96.5c-0.6-0.1-1.1-0.2-1.7-0.4c-0.1-0.6-0.3-1.2-0.4-1.8c0.6,0.1,1.2,0.2,1.7,0.3
								C420.2,95.3,420.3,95.9,420.4,96.5z"/>
							<path class="st31" d="M422.8,97c-0.6-0.1-1.1-0.2-1.7-0.3c-0.1-0.6-0.2-1.2-0.4-1.8c0.6,0.1,1.2,0.2,1.7,0.3
								C422.6,95.8,422.7,96.4,422.8,97z"/>
							<path class="st31" d="M425.2,97.4c-0.6-0.1-1.1-0.2-1.7-0.3c-0.1-0.6-0.2-1.2-0.3-1.8c0.6,0.1,1.2,0.2,1.7,0.3
								C425,96.2,425.1,96.8,425.2,97.4z"/>
							<path class="st31" d="M463.6,95.3c-0.6,0.2-1.1,0.3-1.7,0.4c0.2-0.6,0.3-1.1,0.4-1.7c0.6-0.1,1.2-0.3,1.7-0.4
								C463.9,94.2,463.7,94.7,463.6,95.3z"/>
							<path class="st31" d="M466,94.6c-0.6,0.2-1.1,0.3-1.7,0.5c0.2-0.6,0.3-1.1,0.5-1.7c0.6-0.1,1.2-0.3,1.7-0.4
								C466.3,93.5,466.1,94.1,466,94.6z"/>
							<path class="st30" d="M468.4,93.9c-0.6,0.2-1.1,0.4-1.7,0.5c0.2-0.5,0.4-1.1,0.5-1.6c0.6-0.2,1.2-0.3,1.7-0.5
								C468.7,92.9,468.6,93.4,468.4,93.9z"/>
							<path class="st30" d="M470.7,93.1c-0.6,0.2-1.1,0.4-1.7,0.6c0.2-0.5,0.4-1,0.6-1.5c0.6-0.2,1.2-0.3,1.7-0.5
								C471.2,92.1,471,92.6,470.7,93.1z"/>
							<path class="st30" d="M473.1,92.2c-0.6,0.2-1.1,0.4-1.7,0.6c0.2-0.5,0.4-1,0.6-1.5c0.6-0.2,1.2-0.4,1.7-0.6
								C473.6,91.3,473.4,91.8,473.1,92.2z"/>
							<path class="st30" d="M417.5,98c-0.6-0.2-1.1-0.3-1.7-0.5c-0.2-0.6-0.4-1.1-0.5-1.7c0.6,0.2,1.1,0.3,1.7,0.4
								C417.2,96.9,417.4,97.5,417.5,98z"/>
							<path class="st31" d="M419.9,98.7c-0.6-0.1-1.1-0.3-1.7-0.4c-0.2-0.6-0.3-1.2-0.5-1.7c0.6,0.1,1.1,0.3,1.7,0.4
								C419.6,97.5,419.7,98.1,419.9,98.7z"/>
							<path class="st31" d="M422.2,99.2c-0.6-0.1-1.1-0.3-1.7-0.4c-0.1-0.6-0.3-1.2-0.4-1.8c0.6,0.1,1.1,0.2,1.7,0.4
								C421.9,98,422,98.6,422.2,99.2z"/>
							<path class="st31" d="M424.5,99.7c-0.6-0.1-1.1-0.2-1.7-0.3c-0.1-0.6-0.3-1.2-0.4-1.8c0.6,0.1,1.1,0.2,1.7,0.3
								C424.3,98.5,424.4,99.1,424.5,99.7z"/>
							<path class="st31" d="M426.8,100.1c-0.6-0.1-1.1-0.2-1.7-0.3c-0.1-0.6-0.2-1.2-0.3-1.8c0.6,0.1,1.1,0.2,1.7,0.3
								C426.6,98.9,426.7,99.5,426.8,100.1z"/>
							<path class="st31" d="M459.4,98.5c-0.6,0.1-1.1,0.3-1.7,0.4c0.1-0.6,0.3-1.2,0.4-1.8c0.6-0.1,1.1-0.2,1.7-0.4
								C459.7,97.3,459.6,97.9,459.4,98.5z"/>
							<path class="st31" d="M461.7,97.9c-0.6,0.2-1.1,0.3-1.7,0.5c0.2-0.6,0.3-1.2,0.5-1.7c0.6-0.1,1.1-0.3,1.7-0.4
								C462.1,96.7,461.9,97.3,461.7,97.9z"/>
							<path class="st31" d="M464.1,97.2c-0.6,0.2-1.1,0.3-1.7,0.5c0.2-0.6,0.4-1.1,0.5-1.7c0.6-0.2,1.1-0.3,1.7-0.5
								C464.4,96.1,464.3,96.6,464.1,97.2z"/>
							<path class="st30" d="M466.4,96.4c-0.6,0.2-1.1,0.4-1.7,0.6c0.2-0.5,0.4-1.1,0.6-1.6c0.6-0.2,1.1-0.3,1.7-0.5
								C466.8,95.3,466.6,95.9,466.4,96.4z"/>
							<path class="st30" d="M468.7,95.5c-0.6,0.2-1.1,0.4-1.7,0.6c0.2-0.5,0.4-1,0.6-1.6c0.6-0.2,1.1-0.4,1.7-0.6
								C469.2,94.5,468.9,95,468.7,95.5z"/>
							<path class="st30" d="M471,94.6c-0.6,0.2-1.1,0.4-1.7,0.7c0.2-0.5,0.5-1,0.7-1.5c0.6-0.2,1.1-0.4,1.7-0.6
								C471.5,93.7,471.3,94.1,471,94.6z"/>
							<path class="st30" d="M473.4,93.6c-0.6,0.2-1.1,0.5-1.7,0.7c0.3-0.5,0.5-1,0.7-1.4c0.6-0.2,1.1-0.4,1.7-0.7
								C473.9,92.7,473.6,93.2,473.4,93.6z"/>
							<path class="st30" d="M417.1,100c-0.5-0.2-1.1-0.4-1.6-0.6c-0.2-0.5-0.4-1.1-0.6-1.6c0.5,0.2,1.1,0.4,1.6,0.5
								C416.7,98.8,416.9,99.4,417.1,100z"/>
							<path class="st31" d="M419.3,100.7c-0.5-0.2-1.1-0.3-1.6-0.5c-0.2-0.6-0.4-1.1-0.6-1.7c0.5,0.2,1.1,0.3,1.6,0.5
								C419,99.5,419.2,100.1,419.3,100.7z"/>
							<path class="st31" d="M421.6,101.3c-0.5-0.1-1.1-0.3-1.6-0.5c-0.2-0.6-0.3-1.2-0.5-1.8c0.5,0.1,1.1,0.3,1.6,0.4
								C421.3,100.1,421.4,100.7,421.6,101.3z"/>
							<path class="st31" d="M423.8,101.9c-0.5-0.1-1.1-0.3-1.6-0.4c-0.2-0.6-0.3-1.2-0.4-1.8c0.5,0.1,1.1,0.3,1.6,0.4
								C423.6,100.7,423.7,101.3,423.8,101.9z"/>
							<g>
								<path class="st32" d="M462.9,63.3c-0.6-0.1-1.2-0.2-1.8-0.2c-0.1-0.6-0.2-1.2-0.3-1.8c0.6,0.1,1.2,0.2,1.8,0.3
									C462.8,62.1,462.9,62.7,462.9,63.3z"/>
								<path class="st32" d="M464.6,65.8c-0.6-0.1-1.2-0.1-1.9-0.2c-0.1-0.6-0.1-1.2-0.2-1.7c0.6,0.1,1.2,0.1,1.9,0.2
									C464.5,64.6,464.6,65.2,464.6,65.8z"/>
								<path class="st32" d="M463.5,68c-0.6,0-1.3-0.1-1.9-0.1c0-0.6-0.1-1.2-0.2-1.8c0.6,0.1,1.3,0.1,1.9,0.2
									C463.4,66.8,463.5,67.4,463.5,68z"/>
								<path class="st32" d="M465.1,70.4c-0.6,0-1.3-0.1-1.9-0.1c0-0.6-0.1-1.2-0.1-1.7c0.6,0,1.3,0.1,1.9,0.1
									C465,69.2,465,69.8,465.1,70.4z"/>
								<path class="st32" d="M463.8,72.6c-0.6,0-1.3,0-1.9,0c0-0.6,0-1.2-0.1-1.8c0.6,0,1.3,0.1,1.9,0.1
									C463.8,71.5,463.8,72,463.8,72.6z"/>
								<path class="st32" d="M466.5,72.7c-0.6,0-1.3,0-1.9-0.1c0-0.6,0-1.1-0.1-1.7c0.6,0,1.3,0.1,1.9,0.1
									C466.4,71.6,466.5,72.1,466.5,72.7z"/>
								<path class="st32" d="M462.6,74.9c-0.6,0-1.3,0-1.9,0c0-0.6,0-1.2,0-1.8c0.6,0,1.3,0,1.9,0
									C462.5,73.8,462.5,74.3,462.6,74.9z"/>
								<path class="st32" d="M465.2,74.9c-0.6,0-1.3,0-1.9,0c0-0.6,0-1.2,0-1.7c0.6,0,1.3,0,1.9,0
									C465.2,73.8,465.2,74.4,465.2,74.9z"/>
								<path class="st32" d="M467.9,75c-0.6,0-1.3,0-1.9,0c0-0.6,0-1.1,0-1.7c0.6,0,1.3,0,1.9,0C467.9,73.9,467.9,74.4,467.9,75z"
									/>
								<path class="st32" d="M461.1,77.3c-0.6,0-1.3,0-1.9,0c0-0.6,0-1.2,0-1.8c0.6,0,1.3,0,1.9,0
									C461.2,76.1,461.1,76.7,461.1,77.3z"/>
								<path class="st32" d="M463.8,77.3c-0.6,0-1.3,0-1.9,0c0-0.6,0-1.2,0-1.8c0.6,0,1.3,0,1.9,0
									C463.8,76.1,463.8,76.7,463.8,77.3z"/>
								<path class="st32" d="M466.5,77.2c-0.6,0-1.3,0-1.9,0c0-0.6,0-1.1,0-1.7c0.6,0,1.3,0,1.9,0
									C466.5,76.1,466.5,76.6,466.5,77.2z"/>
								<path class="st32" d="M433,80.1c-0.6,0-1.3,0-1.9,0c0-0.6,0-1.3,0-1.9c0.6,0,1.3,0,1.9,0C433,78.8,433,79.5,433,80.1z"/>
								<path class="st32" d="M459.8,79.8c-0.6,0-1.3,0-1.9,0.1c0-0.6,0-1.2,0.1-1.8c0.6,0,1.3,0,1.9,0
									C459.8,78.6,459.8,79.2,459.8,79.8z"/>
								<path class="st32" d="M462.4,79.6c-0.6,0-1.3,0.1-1.9,0.1c0-0.6,0-1.2,0.1-1.8c0.6,0,1.3,0,1.9,0
									C462.5,78.5,462.5,79.1,462.4,79.6z"/>
								<path class="st32" d="M465.1,79.5c-0.6,0-1.3,0.1-1.9,0.1c0-0.6,0.1-1.2,0.1-1.7c0.6,0,1.3,0,1.9-0.1
									C465.2,78.4,465.2,79,465.1,79.5z"/>
								<path class="st32" d="M467.8,79.4c-0.6,0-1.3,0.1-1.9,0.1c0-0.6,0.1-1.1,0.1-1.7c0.6,0,1.3,0,1.9-0.1
									C467.9,78.3,467.8,78.8,467.8,79.4z"/>
								<path class="st32" d="M431.6,82.7c-0.6,0-1.3,0-1.9,0c0-0.6,0-1.3-0.1-1.9c0.6,0,1.3,0,1.9,0
									C431.6,81.4,431.6,82,431.6,82.7z"/>
								<path class="st32" d="M434.3,82.7c-0.6,0-1.3,0-1.9,0c0-0.6,0-1.3,0-1.9c0.6,0,1.3,0,1.9,0
									C434.3,81.4,434.3,82.1,434.3,82.7z"/>
								<path class="st32" d="M460.9,82.1c-0.6,0-1.3,0.1-1.9,0.1c0-0.6,0.1-1.2,0.1-1.8c0.6,0,1.3-0.1,1.9-0.1
									C461,80.9,460.9,81.5,460.9,82.1z"/>
								<path class="st32" d="M463.6,81.9c-0.6,0-1.3,0.1-1.9,0.1c0-0.6,0.1-1.2,0.1-1.8c0.6,0,1.3-0.1,1.9-0.1
									C463.7,80.8,463.6,81.3,463.6,81.9z"/>
								<path class="st32" d="M466.2,81.7c-0.6,0-1.3,0.1-1.9,0.1c0-0.6,0.1-1.1,0.1-1.7c0.6,0,1.3-0.1,1.9-0.1
									C466.3,80.6,466.3,81.2,466.2,81.7z"/>
								<path class="st32" d="M430.4,85.2c-0.6,0-1.3,0-1.9-0.1c0-0.6-0.1-1.3-0.1-1.9c0.6,0,1.3,0,1.9,0.1
									C430.4,83.9,430.4,84.6,430.4,85.2z"/>
								<path class="st32" d="M433.1,85.3c-0.6,0-1.3,0-1.9-0.1c0-0.6,0-1.3-0.1-1.9c0.6,0,1.3,0,1.9,0
									C433,84,433.1,84.7,433.1,85.3z"/>
								<path class="st32" d="M435.7,85.4c-0.6,0-1.3,0-1.9,0c0-0.6,0-1.3,0-1.9c0.6,0,1.3,0,1.9,0
									C435.7,84.1,435.7,84.7,435.7,85.4z"/>
								<path class="st32" d="M459.4,84.6c-0.6,0-1.3,0.1-1.9,0.1c0-0.6,0.1-1.2,0.1-1.8c0.6,0,1.3-0.1,1.9-0.1
									C459.5,83.4,459.5,84,459.4,84.6z"/>
								<path class="st32" d="M462.1,84.4c-0.6,0.1-1.3,0.1-1.9,0.2c0.1-0.6,0.1-1.2,0.2-1.8c0.6,0,1.3-0.1,1.9-0.1
									C462.2,83.2,462.1,83.8,462.1,84.4z"/>
								<path class="st32" d="M464.7,84.1c-0.6,0.1-1.3,0.1-1.9,0.2c0.1-0.6,0.1-1.2,0.2-1.7c0.6,0,1.3-0.1,1.9-0.1
									C464.8,83,464.8,83.5,464.7,84.1z"/>
								<path class="st32" d="M429.2,87.7c-0.6,0-1.2-0.1-1.9-0.1c0-0.6-0.1-1.3-0.1-1.9c0.6,0,1.2,0.1,1.9,0.1
									C429.1,86.5,429.2,87.1,429.2,87.7z"/>
								<path class="st32" d="M431.8,87.9c-0.6,0-1.2-0.1-1.9-0.1c0-0.6-0.1-1.3-0.1-1.9c0.6,0,1.2,0,1.9,0.1
									C431.8,86.6,431.8,87.2,431.8,87.9z"/>
								<path class="st32" d="M434.4,87.9c-0.6,0-1.2,0-1.9-0.1c0-0.6,0-1.3-0.1-1.9c0.6,0,1.2,0,1.9,0
									C434.4,86.7,434.4,87.3,434.4,87.9z"/>
								<path class="st32" d="M460.4,86.9c-0.6,0.1-1.2,0.1-1.9,0.2c0.1-0.6,0.1-1.2,0.2-1.8c0.6-0.1,1.2-0.1,1.9-0.2
									C460.6,85.7,460.5,86.3,460.4,86.9z"/>
								<path class="st32" d="M463,86.6c-0.6,0.1-1.2,0.1-1.9,0.2c0.1-0.6,0.1-1.2,0.2-1.8c0.6-0.1,1.2-0.1,1.9-0.2
									C463.2,85.4,463.1,86,463,86.6z"/>
								<path class="st32" d="M465.6,86.2c-0.6,0.1-1.2,0.2-1.9,0.2c0.1-0.6,0.2-1.1,0.2-1.7c0.6-0.1,1.2-0.1,1.9-0.2
									C465.8,85.1,465.7,85.7,465.6,86.2z"/>
								<path class="st32" d="M428.1,90.2c-0.6,0-1.2-0.1-1.8-0.1c-0.1-0.6-0.1-1.3-0.2-1.9c0.6,0,1.2,0.1,1.8,0.1
									C428,89,428.1,89.6,428.1,90.2z"/>
								<path class="st32" d="M430.7,90.4c-0.6,0-1.2-0.1-1.8-0.1c0-0.6-0.1-1.3-0.1-1.9c0.6,0,1.2,0.1,1.8,0.1
									C430.6,89.1,430.7,89.7,430.7,90.4z"/>
								<path class="st32" d="M433.3,90.5c-0.6,0-1.2-0.1-1.8-0.1c0-0.6-0.1-1.3-0.1-1.9c0.6,0,1.2,0.1,1.8,0.1
									C433.2,89.2,433.2,89.9,433.3,90.5z"/>
								<path class="st32" d="M458.9,89.4c-0.6,0.1-1.2,0.1-1.8,0.2c0.1-0.6,0.1-1.2,0.2-1.8c0.6-0.1,1.2-0.1,1.8-0.2
									C459,88.2,459,88.8,458.9,89.4z"/>
								<path class="st32" d="M461.4,89.1c-0.6,0.1-1.2,0.2-1.8,0.2c0.1-0.6,0.2-1.2,0.2-1.8c0.6-0.1,1.2-0.1,1.8-0.2
									C461.6,87.9,461.5,88.5,461.4,89.1z"/>
								<path class="st32" d="M464,88.7c-0.6,0.1-1.2,0.2-1.8,0.3c0.1-0.6,0.2-1.2,0.3-1.7c0.6-0.1,1.2-0.2,1.8-0.2
									C464.2,87.6,464.1,88.1,464,88.7z"/>
								<path class="st32" d="M427,92.7c-0.6-0.1-1.2-0.1-1.8-0.2c-0.1-0.6-0.1-1.2-0.2-1.9c0.6,0.1,1.2,0.1,1.8,0.2
									C426.9,91.4,427,92,427,92.7z"/>
								<path class="st32" d="M429.5,92.9c-0.6,0-1.2-0.1-1.8-0.1c-0.1-0.6-0.1-1.3-0.2-1.9c0.6,0,1.2,0.1,1.8,0.1
									C429.4,91.6,429.5,92.2,429.5,92.9z"/>
								<path class="st32" d="M457.2,92c-0.6,0.1-1.2,0.2-1.8,0.2c0.1-0.6,0.2-1.2,0.2-1.8c0.6-0.1,1.2-0.1,1.8-0.2
									C457.4,90.8,457.3,91.4,457.2,92z"/>
								<path class="st32" d="M459.7,91.7c-0.6,0.1-1.2,0.2-1.8,0.3c0.1-0.6,0.2-1.2,0.3-1.8c0.6-0.1,1.2-0.2,1.8-0.2
									C459.9,90.5,459.8,91.1,459.7,91.7z"/>
								<path class="st32" d="M462.2,91.2c-0.6,0.1-1.2,0.2-1.8,0.3c0.1-0.6,0.2-1.2,0.3-1.8c0.6-0.1,1.2-0.2,1.8-0.3
									C462.5,90.1,462.4,90.7,462.2,91.2z"/>
								<path class="st32" d="M455.6,94.6c-0.6,0.1-1.2,0.2-1.8,0.2c0.1-0.6,0.2-1.2,0.2-1.9c0.6-0.1,1.2-0.1,1.8-0.2
									C455.8,93.4,455.7,94,455.6,94.6z"/>
								<path class="st32" d="M458.1,94.3c-0.6,0.1-1.2,0.2-1.8,0.3c0.1-0.6,0.2-1.2,0.3-1.8c0.6-0.1,1.2-0.2,1.8-0.3
									C458.3,93.1,458.2,93.7,458.1,94.3z"/>
								<path class="st32" d="M460.6,93.8c-0.6,0.1-1.2,0.2-1.8,0.3c0.1-0.6,0.2-1.2,0.3-1.8c0.6-0.1,1.2-0.2,1.8-0.3
									C460.8,92.6,460.7,93.2,460.6,93.8z"/>
								<path class="st32" d="M427.6,97.7c-0.6-0.1-1.1-0.2-1.7-0.2c-0.1-0.6-0.2-1.2-0.3-1.9c0.6,0.1,1.2,0.1,1.7,0.2
									C427.5,96.5,427.5,97.1,427.6,97.7z"/>
								<path class="st32" d="M454,97.3c-0.6,0.1-1.1,0.2-1.7,0.3c0.1-0.6,0.2-1.2,0.3-1.9c0.6-0.1,1.2-0.2,1.7-0.2
									C454.2,96.1,454.1,96.7,454,97.3z"/>
								<path class="st32" d="M456.4,96.9c-0.6,0.1-1.1,0.2-1.7,0.3c0.1-0.6,0.2-1.2,0.3-1.8c0.6-0.1,1.2-0.2,1.7-0.3
									C456.6,95.7,456.5,96.3,456.4,96.9z"/>
								<path class="st32" d="M458.8,96.4c-0.6,0.1-1.1,0.2-1.7,0.3c0.1-0.6,0.2-1.2,0.3-1.8c0.6-0.1,1.2-0.2,1.7-0.3
									C459,95.3,458.9,95.8,458.8,96.4z"/>
								<path class="st32" d="M461.2,95.9c-0.6,0.1-1.1,0.3-1.7,0.4c0.1-0.6,0.3-1.2,0.4-1.8c0.6-0.1,1.2-0.2,1.7-0.4
									C461.5,94.7,461.3,95.3,461.2,95.9z"/>
								<path class="st32" d="M429.2,100.4c-0.6-0.1-1.1-0.2-1.7-0.2c-0.1-0.6-0.2-1.3-0.3-1.9c0.6,0.1,1.1,0.2,1.7,0.2
									C429,99.2,429.1,99.8,429.2,100.4z"/>
								<path class="st32" d="M450.1,100.4c-0.6,0.1-1.1,0.1-1.7,0.2c0.1-0.6,0.1-1.3,0.2-1.9c0.6-0.1,1.1-0.1,1.7-0.2
									C450.3,99.1,450.2,99.7,450.1,100.4z"/>
								<path class="st32" d="M452.4,100c-0.6,0.1-1.1,0.2-1.7,0.3c0.1-0.6,0.2-1.3,0.3-1.9c0.6-0.1,1.1-0.2,1.7-0.2
									C452.6,98.8,452.5,99.4,452.4,100z"/>
								<path class="st32" d="M454.8,99.6c-0.6,0.1-1.1,0.2-1.7,0.3c0.1-0.6,0.2-1.2,0.3-1.9c0.6-0.1,1.1-0.2,1.7-0.3
									C455,98.4,454.9,99,454.8,99.6z"/>
								<path class="st32" d="M457.1,99.1c-0.6,0.1-1.1,0.2-1.7,0.4c0.1-0.6,0.2-1.2,0.4-1.8c0.6-0.1,1.1-0.2,1.7-0.3
									C457.4,97.9,457.2,98.5,457.1,99.1z"/>
								<path class="st32" d="M448.6,103.1c-0.5,0.1-1.1,0.1-1.6,0.2c0.1-0.6,0.1-1.3,0.2-1.9c0.5-0.1,1.1-0.1,1.6-0.2
									C448.7,101.8,448.7,102.5,448.6,103.1z"/>
								<path class="st32" d="M450.8,102.7c-0.5,0.1-1.1,0.2-1.6,0.3c0.1-0.6,0.2-1.3,0.3-1.9c0.5-0.1,1.1-0.2,1.6-0.2
									C451,101.5,450.9,102.1,450.8,102.7z"/>
								<path class="st32" d="M453.1,102.3c-0.5,0.1-1.1,0.2-1.6,0.3c0.1-0.6,0.2-1.2,0.3-1.9c0.5-0.1,1.1-0.2,1.6-0.3
									C453.3,101.1,453.2,101.7,453.1,102.3z"/>
								<path class="st32" d="M455.3,101.8c-0.5,0.1-1.1,0.3-1.6,0.4c0.1-0.6,0.3-1.2,0.4-1.8c0.5-0.1,1.1-0.2,1.6-0.3
									C455.6,100.6,455.5,101.2,455.3,101.8z"/>
							</g>
							<path class="st31" d="M457.6,101.2c-0.5,0.1-1.1,0.3-1.6,0.4c0.1-0.6,0.3-1.2,0.4-1.8c0.5-0.1,1.1-0.3,1.6-0.4
								C457.9,100,457.7,100.6,457.6,101.2z"/>
							<path class="st31" d="M459.8,100.5c-0.5,0.2-1.1,0.3-1.6,0.5c0.2-0.6,0.3-1.2,0.5-1.8c0.5-0.1,1.1-0.3,1.6-0.4
								C460.2,99.4,460,100,459.8,100.5z"/>
							<path class="st31" d="M462.1,99.8c-0.5,0.2-1.1,0.4-1.6,0.5c0.2-0.6,0.4-1.1,0.5-1.7c0.5-0.2,1.1-0.3,1.6-0.5
								C462.5,98.7,462.3,99.3,462.1,99.8z"/>
							<path class="st31" d="M464.3,99c-0.5,0.2-1.1,0.4-1.6,0.6c0.2-0.6,0.4-1.1,0.6-1.7c0.5-0.2,1.1-0.4,1.6-0.5
								C464.8,97.9,464.5,98.5,464.3,99z"/>
							<path class="st30" d="M466.6,98.1c-0.5,0.2-1.1,0.4-1.6,0.6c0.2-0.5,0.5-1.1,0.7-1.6c0.5-0.2,1.1-0.4,1.6-0.6
								C467,97.1,466.8,97.6,466.6,98.1z"/>
							<path class="st30" d="M468.8,97.1c-0.5,0.2-1.1,0.5-1.6,0.7c0.2-0.5,0.5-1,0.7-1.5c0.5-0.2,1.1-0.4,1.6-0.7
								C469.3,96.1,469.1,96.6,468.8,97.1z"/>
							<path class="st30" d="M471.1,96.1c-0.5,0.3-1.1,0.5-1.6,0.8c0.3-0.5,0.5-1,0.8-1.5c0.5-0.2,1.1-0.5,1.6-0.7
								C471.6,95.1,471.3,95.6,471.1,96.1z"/>
							<path class="st30" d="M473.3,95c-0.5,0.3-1.1,0.5-1.6,0.8c0.3-0.5,0.6-0.9,0.8-1.4c0.5-0.2,1.1-0.5,1.6-0.8
								C473.9,94.1,473.6,94.5,473.3,95z"/>
							<path class="st30" d="M416.9,101.8c-0.5-0.2-1-0.4-1.5-0.6c-0.2-0.5-0.5-1.1-0.7-1.6c0.5,0.2,1.1,0.4,1.6,0.6
								C416.4,100.7,416.7,101.3,416.9,101.8z"/>
							<path class="st31" d="M419.1,102.7c-0.5-0.2-1-0.4-1.5-0.6c-0.2-0.6-0.4-1.1-0.6-1.7c0.5,0.2,1.1,0.4,1.6,0.5
								C418.7,101.5,418.9,102.1,419.1,102.7z"/>
							<path class="st31" d="M421.2,103.4c-0.5-0.2-1-0.3-1.5-0.5c-0.2-0.6-0.4-1.2-0.6-1.7c0.5,0.2,1.1,0.3,1.6,0.5
								C420.9,102.2,421,102.8,421.2,103.4z"/>
							<path class="st31" d="M423.4,104.1c-0.5-0.1-1-0.3-1.5-0.5c-0.2-0.6-0.4-1.2-0.5-1.8c0.5,0.2,1.1,0.3,1.6,0.4
								C423.1,102.9,423.2,103.5,423.4,104.1z"/>
							<path class="st31" d="M462.3,101.6c-0.5,0.2-1,0.4-1.5,0.6c0.2-0.6,0.4-1.1,0.6-1.7c0.5-0.2,1.1-0.4,1.6-0.6
								C462.8,100.5,462.6,101.1,462.3,101.6z"/>
							<path class="st30" d="M464.5,100.7c-0.5,0.2-1,0.5-1.5,0.7c0.2-0.5,0.5-1.1,0.7-1.6c0.5-0.2,1.1-0.4,1.6-0.6
								C465,99.6,464.7,100.1,464.5,100.7z"/>
							<path class="st30" d="M466.7,99.7c-0.5,0.3-1,0.5-1.5,0.7c0.3-0.5,0.5-1,0.8-1.6c0.5-0.2,1.1-0.5,1.6-0.7
								C467.2,98.6,466.9,99.2,466.7,99.7z"/>
							<path class="st30" d="M468.8,98.6c-0.5,0.3-1,0.5-1.5,0.8c0.3-0.5,0.6-1,0.8-1.5c0.5-0.2,1.1-0.5,1.6-0.7
								C469.4,97.6,469.1,98.1,468.8,98.6z"/>
							<path class="st30" d="M471,97.4c-0.5,0.3-1,0.6-1.5,0.9c0.3-0.5,0.6-1,0.9-1.4c0.5-0.3,1.1-0.5,1.6-0.8
								C471.6,96.4,471.3,96.9,471,97.4z"/>
							<path class="st30" d="M416.8,103.6c-0.5-0.2-1-0.5-1.5-0.7c-0.3-0.5-0.5-1.1-0.8-1.6c0.5,0.2,1,0.5,1.5,0.7
								C416.3,102.5,416.5,103,416.8,103.6z"/>
							<path class="st31" d="M418.9,104.5c-0.5-0.2-1-0.4-1.5-0.7c-0.3-0.5-0.5-1.1-0.7-1.6c0.5,0.2,1,0.4,1.5,0.6
								C418.4,103.4,418.6,103.9,418.9,104.5z"/>
							<path class="st31" d="M420.9,105.4c-0.5-0.2-1-0.4-1.5-0.6c-0.2-0.6-0.5-1.1-0.7-1.7c0.5,0.2,1,0.4,1.5,0.6
								C420.5,104.2,420.7,104.8,420.9,105.4z"/>
							<path class="st31" d="M423,106.1c-0.5-0.2-1-0.3-1.5-0.5c-0.2-0.6-0.4-1.2-0.6-1.8c0.5,0.2,1,0.3,1.5,0.5
								C422.6,104.9,422.8,105.5,423,106.1z"/>
							<path class="st31" d="M425.1,106.8c-0.5-0.1-1-0.3-1.5-0.5c-0.2-0.6-0.4-1.2-0.5-1.8c0.5,0.2,1,0.3,1.5,0.4
								C424.7,105.6,424.9,106.2,425.1,106.8z"/>
							<path class="st31" d="M427.1,107.4c-0.5-0.1-1-0.3-1.5-0.4c-0.2-0.6-0.3-1.2-0.5-1.8c0.5,0.1,1,0.3,1.5,0.4
								C426.9,106.2,427,106.8,427.1,107.4z"/>
							<path class="st31" d="M429.2,107.9c-0.5-0.1-1-0.2-1.5-0.3c-0.1-0.6-0.3-1.2-0.4-1.9c0.5,0.1,1,0.2,1.5,0.3
								C429,106.6,429.1,107.3,429.2,107.9z"/>
							<path class="st30" d="M460.3,104.3c-0.5,0.2-1,0.4-1.5,0.6c0.2-0.6,0.4-1.1,0.7-1.7c0.5-0.2,1-0.4,1.5-0.6
								C460.7,103.2,460.5,103.8,460.3,104.3z"/>
							<path class="st30" d="M462.3,103.4c-0.5,0.2-1,0.5-1.5,0.7c0.2-0.6,0.5-1.1,0.7-1.7c0.5-0.2,1-0.4,1.5-0.7
								C462.9,102.3,462.6,102.8,462.3,103.4z"/>
							<path class="st30" d="M464.4,102.3c-0.5,0.3-1,0.5-1.5,0.8c0.3-0.5,0.5-1.1,0.8-1.6c0.5-0.2,1-0.5,1.5-0.7
								C465,101.3,464.7,101.8,464.4,102.3z"/>
							<path class="st30" d="M466.5,101.2c-0.5,0.3-1,0.6-1.5,0.8c0.3-0.5,0.6-1,0.9-1.5c0.5-0.3,1-0.5,1.5-0.8
								C467.1,100.2,466.8,100.7,466.5,101.2z"/>
							<path class="st30" d="M468.5,99.9c-0.5,0.3-1,0.6-1.5,0.9c0.3-0.5,0.6-1,0.9-1.5c0.5-0.3,1-0.6,1.5-0.8
								C469.2,99,468.9,99.4,468.5,99.9z"/>
							<path class="st30" d="M470.6,98.6c-0.5,0.3-1,0.6-1.5,1c0.3-0.5,0.7-0.9,1-1.4c0.5-0.3,1-0.6,1.5-0.9
								C471.3,97.7,471,98.1,470.6,98.6z"/>
							<path class="st30" d="M416.9,105.2c-0.5-0.3-0.9-0.5-1.4-0.8c-0.3-0.5-0.6-1-0.9-1.6c0.5,0.3,1,0.5,1.5,0.8
								C416.4,104.2,416.6,104.7,416.9,105.2z"/>
							<path class="st31" d="M418.9,106.3c-0.5-0.2-0.9-0.5-1.4-0.8c-0.3-0.5-0.6-1.1-0.8-1.6c0.5,0.2,1,0.5,1.5,0.7
								C418.4,105.2,418.6,105.7,418.9,106.3z"/>
							<path class="st31" d="M420.9,107.3c-0.5-0.2-0.9-0.4-1.4-0.7c-0.3-0.6-0.5-1.1-0.8-1.7c0.5,0.2,1,0.4,1.5,0.6
								C420.4,106.1,420.6,106.7,420.9,107.3z"/>
							<path class="st31" d="M422.8,108.1c-0.5-0.2-0.9-0.4-1.4-0.6c-0.2-0.6-0.5-1.2-0.7-1.7c0.5,0.2,1,0.4,1.5,0.6
								C422.4,107,422.6,107.6,422.8,108.1z"/>
							<path class="st31" d="M424.8,108.9c-0.5-0.2-0.9-0.4-1.4-0.5c-0.2-0.6-0.4-1.2-0.6-1.8c0.5,0.2,1,0.3,1.5,0.5
								C424.4,107.7,424.6,108.3,424.8,108.9z"/>
							<path class="st30" d="M454.4,108.7c-0.5,0.2-0.9,0.3-1.4,0.5c0.2-0.6,0.4-1.2,0.5-1.8c0.5-0.2,1-0.3,1.5-0.5
								C454.8,107.5,454.6,108.1,454.4,108.7z"/>
							<path class="st30" d="M456.3,107.9c-0.5,0.2-0.9,0.4-1.4,0.6c0.2-0.6,0.4-1.2,0.6-1.8c0.5-0.2,1-0.4,1.5-0.5
								C456.8,106.8,456.6,107.4,456.3,107.9z"/>
							<path class="st30" d="M458.3,107.1c-0.5,0.2-0.9,0.4-1.4,0.6c0.2-0.6,0.5-1.2,0.7-1.7c0.5-0.2,1-0.4,1.5-0.6
								C458.8,105.9,458.6,106.5,458.3,107.1z"/>
							<path class="st30" d="M460.3,106.1c-0.5,0.2-0.9,0.5-1.4,0.7c0.3-0.6,0.5-1.1,0.7-1.7c0.5-0.2,1-0.4,1.5-0.7
								C460.8,105,460.6,105.5,460.3,106.1z"/>
							<path class="st30" d="M462.3,105c-0.5,0.3-0.9,0.5-1.4,0.8c0.3-0.5,0.6-1.1,0.8-1.6c0.5-0.2,1-0.5,1.5-0.7
								C462.8,103.9,462.6,104.4,462.3,105z"/>
							<path class="st30" d="M464.2,103.8c-0.5,0.3-0.9,0.6-1.4,0.9c0.3-0.5,0.6-1,0.9-1.6c0.5-0.3,1-0.5,1.5-0.8
								C464.9,102.8,464.5,103.3,464.2,103.8z"/>
							<path class="st30" d="M466.2,102.5c-0.5,0.3-0.9,0.6-1.4,0.9c0.3-0.5,0.7-1,1-1.5c0.5-0.3,1-0.6,1.5-0.9
								C466.9,101.5,466.5,102,466.2,102.5z"/>
							<path class="st30" d="M468.2,101.1c-0.5,0.3-0.9,0.7-1.4,1c0.4-0.5,0.7-1,1-1.4c0.5-0.3,1-0.6,1.5-0.9
								C468.9,100.2,468.5,100.6,468.2,101.1z"/>
							<path class="st30" d="M417.2,106.8c-0.4-0.3-0.9-0.6-1.3-0.9c-0.3-0.5-0.7-1-1-1.5c0.5,0.3,0.9,0.6,1.4,0.9
								C416.5,105.7,416.9,106.2,417.2,106.8z"/>
							<path class="st31" d="M419.1,108c-0.4-0.3-0.9-0.6-1.3-0.8c-0.3-0.5-0.6-1.1-0.9-1.6c0.5,0.3,0.9,0.5,1.4,0.8
								C418.5,106.9,418.8,107.4,419.1,108z"/>
							<path class="st31" d="M420.9,109.1c-0.4-0.2-0.9-0.5-1.3-0.8c-0.3-0.5-0.6-1.1-0.9-1.6c0.5,0.3,0.9,0.5,1.4,0.7
								C420.4,107.9,420.6,108.5,420.9,109.1z"/>
							<path class="st31" d="M422.8,110c-0.4-0.2-0.9-0.5-1.3-0.7c-0.3-0.6-0.5-1.1-0.8-1.7c0.5,0.2,0.9,0.4,1.4,0.7
								C422.3,108.9,422.5,109.5,422.8,110z"/>
							<path class="st31" d="M424.6,110.9c-0.4-0.2-0.9-0.4-1.3-0.6c-0.2-0.6-0.5-1.2-0.7-1.8c0.5,0.2,0.9,0.4,1.4,0.6
								C424.2,109.7,424.4,110.3,424.6,110.9z"/>
							<path class="st30" d="M445.1,113.7c-0.4,0.1-0.9,0.1-1.3,0.2c0.1-0.6,0.1-1.3,0.2-1.9c0.5-0.1,0.9-0.1,1.4-0.2
								C445.3,112.4,445.2,113.1,445.1,113.7z"/>
							<path class="st30" d="M447,113.3c-0.4,0.1-0.9,0.2-1.3,0.3c0.1-0.6,0.2-1.3,0.3-1.9c0.5-0.1,0.9-0.2,1.4-0.3
								C447.2,112.1,447.1,112.7,447,113.3z"/>
							<path class="st30" d="M448.9,112.9c-0.4,0.1-0.9,0.2-1.3,0.4c0.1-0.6,0.2-1.3,0.4-1.9c0.5-0.1,0.9-0.2,1.4-0.3
								C449.1,111.6,449,112.2,448.9,112.9z"/>
							<path class="st30" d="M450.7,112.3c-0.4,0.2-0.9,0.3-1.3,0.4c0.1-0.6,0.3-1.2,0.4-1.9c0.5-0.1,0.9-0.3,1.4-0.4
								C451,111,450.9,111.6,450.7,112.3z"/>
							<path class="st30" d="M452.6,111.6c-0.4,0.2-0.9,0.3-1.3,0.5c0.2-0.6,0.3-1.2,0.5-1.8c0.5-0.2,0.9-0.3,1.4-0.5
								C453,110.4,452.8,111,452.6,111.6z"/>
							<path class="st30" d="M454.4,110.8c-0.4,0.2-0.9,0.4-1.3,0.6c0.2-0.6,0.4-1.2,0.6-1.8c0.5-0.2,0.9-0.4,1.4-0.6
								C454.9,109.6,454.7,110.2,454.4,110.8z"/>
							<path class="st30" d="M456.3,109.9c-0.4,0.2-0.9,0.4-1.3,0.7c0.2-0.6,0.5-1.2,0.7-1.8c0.5-0.2,0.9-0.4,1.4-0.6
								C456.8,108.7,456.6,109.3,456.3,109.9z"/>
							<path class="st30" d="M458.2,108.8c-0.4,0.3-0.9,0.5-1.3,0.7c0.3-0.6,0.5-1.1,0.8-1.7c0.5-0.2,0.9-0.5,1.4-0.7
								C458.7,107.7,458.4,108.3,458.2,108.8z"/>
							<path class="st30" d="M460,107.7c-0.4,0.3-0.9,0.5-1.3,0.8c0.3-0.6,0.6-1.1,0.8-1.7c0.5-0.2,0.9-0.5,1.4-0.8
								C460.6,106.7,460.3,107.2,460,107.7z"/>
							<path class="st30" d="M461.9,106.5c-0.4,0.3-0.9,0.6-1.3,0.9c0.3-0.5,0.6-1.1,0.9-1.6c0.5-0.3,0.9-0.5,1.4-0.8
								C462.6,105.5,462.2,106,461.9,106.5z"/>
							<path class="st30" d="M463.8,105.2c-0.4,0.3-0.9,0.6-1.3,1c0.3-0.5,0.7-1,1-1.5c0.5-0.3,0.9-0.6,1.4-0.9
								C464.5,104.2,464.1,104.7,463.8,105.2z"/>
							<path class="st30" d="M465.6,103.8c-0.4,0.4-0.9,0.7-1.3,1c0.4-0.5,0.7-1,1.1-1.5c0.5-0.3,0.9-0.6,1.4-1
								C466.4,102.8,466,103.3,465.6,103.8z"/>
							<path class="st30" d="M467.5,102.2c-0.4,0.4-0.9,0.7-1.3,1.1c0.4-0.5,0.8-0.9,1.2-1.4c0.5-0.3,0.9-0.7,1.4-1.1
								C468.3,101.3,467.9,101.8,467.5,102.2z"/>
						</g>
					</g>
					<polygon class="st0" points="64.5,105 64.5,98.1 71.7,98.1 71.7,103.7 					"/>
					<polygon class="st0" points="190.6,105 190.6,98.1 197.8,98.1 197.8,103.7 					"/>
					<polygon class="st0" points="259.1,105 259.1,98.1 266.3,98.1 266.3,103.7 					"/>
				</g>
				<circle class="st33" cx="64.5" cy="162.7" r="0.5"/>
			</g>
		</g>
	</g>
</g>
</svg>
